<svg aria-hidden="true" style="position: absolute; width: 0; height: 0; overflow: hidden;" version="1.1" xmlns="http://www.w3.org/2000/svg" xmlns:xlink="http://www.w3.org/1999/xlink">
<defs>
<symbol id="icon-telegram" viewBox="0 0 32 32">
<path d="M21.421 11.349l-7.127 6.624c-0.25 0.233-0.412 0.545-0.458 0.884l-0.242 1.799c-0.032 0.24-0.37 0.264-0.436 0.031l-0.934-3.28c-0.107-0.374 0.049-0.774 0.38-0.978l8.635-5.319c0.155-0.095 0.315 0.115 0.182 0.239zM32 0v32h-32v-32h32zM24.879 7.688l-18.133 6.995c-0.447 0.172-0.444 0.806 0.005 0.974l4.418 1.649 1.71 5.5c0.11 0.352 0.541 0.482 0.826 0.249l2.463-2.008c0.258-0.21 0.626-0.221 0.895-0.025l4.442 3.225c0.306 0.222 0.739 0.055 0.816-0.315l3.254-15.653c0.084-0.404-0.313-0.74-0.697-0.592z"></path>
</symbol>
<symbol id="icon-whatsapp" viewBox="0 0 32 32">
<path d="M16.014 6.693c-5.117 0-9.28 4.163-9.28 9.28 0 1.783 0.507 3.514 1.465 5.007l0.23 0.359-0.903 3.206 3.317-0.854 0.342 0.209c1.45 0.885 3.12 1.353 4.828 1.353 5.117 0 9.28-4.163 9.28-9.28s-4.163-9.28-9.28-9.28zM21.705 18.826l-0.116 0.541c-0.131 0.61-0.493 1.15-1.019 1.486-0.664 0.425-1.524 0.633-2.618 0.324-3.394-0.96-5.313-3.207-6.343-4.611s-1.428-2.809-1.17-3.956c0.173-0.769 0.735-1.359 1.086-1.665 0.172-0.15 0.396-0.226 0.623-0.213l0.725 0.040c0.143 0.008 0.269 0.096 0.325 0.227l1.056 2.472c0.056 0.132 0.033 0.285-0.061 0.393l-0.92 1.064c-0.075 0.086-0.088 0.209-0.035 0.31 1.211 2.333 3.418 3.257 4.077 3.489 0.112 0.039 0.237 0.002 0.309-0.092l0.962-1.247c0.107-0.139 0.296-0.185 0.455-0.112l2.451 1.13c0.16 0.074 0.247 0.248 0.21 0.42z"></path>
<path d="M0 0v32h32v-32h-32zM16.014 27.15c-1.92 0-3.8-0.492-5.464-1.425l-5.741 1.478 1.567-5.567c-1.008-1.712-1.539-3.661-1.539-5.662 0-6.163 5.014-11.176 11.176-11.176s11.176 5.014 11.176 11.176c0 6.163-5.014 11.176-11.176 11.176z"></path>
</symbol>
<symbol id="icon-instagram" viewBox="0 0 32 32">
<path d="M23.169 0h-14.338c-4.869 0-8.831 3.962-8.831 8.831v14.338c0 4.869 3.961 8.831 8.831 8.831h14.338c4.87 0 8.831-3.962 8.831-8.831v-14.338c0-4.869-3.961-8.831-8.831-8.831zM29.161 23.169c0 3.304-2.688 5.992-5.992 5.992h-14.338c-3.304 0-5.991-2.688-5.991-5.992v-14.338c0-3.304 2.688-5.992 5.991-5.992h14.338c3.304 0 5.992 2.688 5.992 5.992v14.338z"></path>
<path d="M16 7.755c-4.547 0-8.246 3.699-8.246 8.246s3.699 8.245 8.246 8.245 8.246-3.699 8.246-8.245c0-4.547-3.699-8.246-8.246-8.246zM16 21.406c-2.981 0-5.406-2.425-5.406-5.406s2.425-5.406 5.406-5.406 5.406 2.425 5.406 5.406c0 2.981-2.425 5.406-5.406 5.406z"></path>
<path d="M24.591 5.347c-0.547 0-1.084 0.221-1.471 0.609-0.388 0.386-0.611 0.924-0.611 1.473 0 0.547 0.223 1.085 0.611 1.473 0.386 0.386 0.924 0.609 1.471 0.609 0.549 0 1.085-0.223 1.473-0.609 0.388-0.388 0.609-0.926 0.609-1.473 0-0.549-0.221-1.086-0.609-1.473-0.386-0.388-0.924-0.609-1.473-0.609z"></path>
</symbol>
<symbol id="icon-vimeo" viewBox="0 0 32 32">
<path d="M27.34 3.098c3.096 0.081 4.645 1.839 4.66 5.277 0 0.226-0.008 0.46-0.020 0.701-0.137 2.915-2.306 6.886-6.516 11.912-4.343 5.265-8.026 7.901-11.052 7.914-1.882 0-3.445-1.612-4.699-4.837l-1.317-4.421-1.302-4.415c-0.959-3.199-1.985-4.795-3.079-4.795-0.239 0-1.070 0.467-2.496 1.397l-1.52-1.797 2.358-1.959 2.319-1.939c2.077-1.664 3.656-2.563 4.74-2.697 0.144-0.015 0.289-0.020 0.436-0.020 2.224 0 3.613 1.598 4.158 4.795 0.304 1.824 0.556 3.306 0.76 4.445 0.198 1.142 0.364 1.937 0.496 2.39 0.735 3.024 1.527 4.544 2.379 4.556 0.654 0 1.661-0.985 3.021-2.956 1.329-2.025 2.045-3.524 2.137-4.501 0.029-0.198 0.040-0.384 0.040-0.556 0-1.322-0.728-1.98-2.177-1.98-0.735 0-1.52 0.157-2.359 0.459 1.504-4.637 4.396-6.96 8.673-6.975 0.12 0 0.238 0 0.359 0z"></path>
</symbol>
<symbol id="icon-tiktok" viewBox="0 0 32 32">
<path d="M28.19 0h-24.381c-2.101 0-3.81 1.709-3.81 3.81v24.381c0 2.101 1.709 3.81 3.81 3.81h24.381c2.101 0 3.81-1.709 3.81-3.81v-24.381c0-2.101-1.709-3.81-3.81-3.81zM25.147 13.96c-0.157 0.016-0.339 0.026-0.524 0.027h-0.001c-0 0-0.001 0-0.001 0-1.989 0-3.741-1.017-4.762-2.56l-0.013-0.021v8.79c0 3.588-2.909 6.497-6.497 6.497s-6.497-2.909-6.497-6.497c0-3.588 2.909-6.497 6.497-6.497v0c0.136 0 0.268 0.012 0.402 0.021v3.202c-0.133-0.016-0.264-0.040-0.402-0.040-1.831 0-3.316 1.485-3.316 3.316s1.485 3.316 3.316 3.316v0c1.832 0 3.449-1.443 3.449-3.275l0.032-14.929h3.063c0.297 2.741 2.497 4.885 5.239 5.092l0.019 0.001v3.558z"></path>
</symbol>
</defs>
</svg>
