<svg width="46" height="46" viewBox="0 0 46 46" fill="none" xmlns="http://www.w3.org/2000/svg">
<g clip-path="url(#clip0_4008_14)">
<path d="M39.801 0H6.19859C2.77527 0 0 2.77516 0 6.19859V39.8012C0 43.2246 2.77516 45.9998 6.19859 45.9998H22.7711L22.7994 29.5619H18.5288C17.9738 29.5619 17.5234 29.1132 17.5212 28.5582L17.5008 23.2596C17.4986 22.7016 17.9504 22.2481 18.5085 22.2481H22.7712V17.1283C22.7712 11.1868 26.3999 7.95166 31.7001 7.95166H36.0493C36.6057 7.95166 37.057 8.40279 37.057 8.95935V13.4272C37.057 13.9835 36.6061 14.4345 36.0498 14.4348L33.3808 14.4361C30.4984 14.4361 29.9403 15.8058 29.9403 17.8158V22.2482H36.2739C36.8774 22.2482 37.3456 22.7752 37.2745 23.3745L36.6465 28.6731C36.5864 29.1801 36.1564 29.5622 35.6459 29.5622H29.9685L29.9403 46H39.8012C43.2245 46 45.9997 43.2248 45.9997 39.8015V6.19859C45.9995 2.77516 43.2244 0 39.801 0Z" fill="#FF69B4"/>
</g>
<defs>
<clipPath id="clip0_4008_14">
<rect width="46" height="46" fill="white"/>
</clipPath>
</defs>
</svg>
