<svg width="46" height="46" viewBox="0 0 46 46" fill="none" xmlns="http://www.w3.org/2000/svg">
<g clip-path="url(#clip0_4008_16)">
<path d="M32.2964 0H13.7036C6.14743 0 0 6.14743 0 13.7036V32.2964C0 39.8526 6.14743 46 13.7036 46H32.2964C39.8526 46 46 39.8526 46 32.2964V13.7036C45.9999 6.14743 39.8525 0 32.2964 0ZM41.3724 32.2964C41.3724 37.3089 37.3089 41.3724 32.2964 41.3724H13.7036C8.69113 41.3724 4.6276 37.3089 4.6276 32.2964V13.7036C4.6276 8.69104 8.69113 4.6276 13.7036 4.6276H32.2964C37.3089 4.6276 41.3724 8.69104 41.3724 13.7036V32.2964Z" fill="url(#paint0_linear_4008_16)"/>
<path d="M22.9998 11.1025C16.4396 11.1025 11.1025 16.4396 11.1025 22.9997C11.1025 29.5598 16.4396 34.8969 22.9998 34.8969C29.5599 34.8969 34.897 29.5598 34.897 22.9997C34.897 16.4395 29.5599 11.1025 22.9998 11.1025ZM22.9998 30.2694C18.9848 30.2694 15.7301 27.0147 15.7301 22.9998C15.7301 18.9848 18.9849 15.7301 22.9998 15.7301C27.0147 15.7301 30.2694 18.9848 30.2694 22.9998C30.2694 27.0146 27.0146 30.2694 22.9998 30.2694Z" fill="url(#paint1_linear_4008_16)"/>
<path d="M34.9201 14.0433C36.4945 14.0433 37.7708 12.767 37.7708 11.1925C37.7708 9.61812 36.4945 8.3418 34.9201 8.3418C33.3457 8.3418 32.0693 9.61812 32.0693 11.1925C32.0693 12.767 33.3457 14.0433 34.9201 14.0433Z" fill="url(#paint2_linear_4008_16)"/>
</g>
<defs>
<linearGradient id="paint0_linear_4008_16" x1="23" y1="45.866" x2="23" y2="0.357273" gradientUnits="userSpaceOnUse">
<stop stop-color="#FF69B4"/>
<stop offset="0.3" stop-color="#FF69B4"/>
<stop offset="0.6" stop-color="#FF69B4"/>
<stop offset="1" stop-color="#FF69B4"/>
</linearGradient>
<linearGradient id="paint1_linear_4008_16" x1="22.9998" y1="45.8658" x2="22.9998" y2="0.35705" gradientUnits="userSpaceOnUse">
<stop stop-color="#FF69B4"/>
<stop offset="0.3" stop-color="#FF69B4"/>
<stop offset="0.6" stop-color="#FF69B4"/>
<stop offset="1" stop-color="#FF69B4"/>
</linearGradient>
<linearGradient id="paint2_linear_4008_16" x1="34.9201" y1="45.8663" x2="34.9201" y2="0.357559" gradientUnits="userSpaceOnUse">
<stop stop-color="#FF69B4"/>
<stop offset="0.3" stop-color="#FF69B4"/>
<stop offset="0.6" stop-color="#FF69B4"/>
<stop offset="1" stop-color="#FF69B4"/>
</linearGradient>
<clipPath id="clip0_4008_16">
<rect width="46" height="46" fill="white"/>
</clipPath>
</defs>
</svg>
