<?xml version="1.0" encoding="utf-8"?>
<!-- Generator: Adobe Illustrator 28.2.0, SVG Export Plug-In . SVG Version: 6.00 Build 0)  -->
<svg version="1.1" id="Capa_1" xmlns="http://www.w3.org/2000/svg" xmlns:xlink="http://www.w3.org/1999/xlink" x="0px" y="0px"
	 viewBox="0 0 800 800" style="enable-background:new 0 0 800 800;" xml:space="preserve">
<style type="text/css">
	.st0{display:none;fill:#FFFFFF;}
	.st1{fill:#FFFFFF;}
</style>
<path id="_x30_6-Movie_Clapper" class="st0" d="M171.5,338.2c-1.5-12.2-5.8-23.6-12.3-33.3l585.3-195.4l-30.7-92
	c-4.5-13.4-18.9-20.6-32.3-16.1L44.8,213.9c-13.4,4.5-20.6,18.9-16.1,32.3l15.1,45.1c-15,14-24.5,33.9-24.5,56
	c0,28.6,15.8,53.6,39.2,66.7v360.5c0,14.1,11.4,25.5,25.5,25.5h671.2c14.1,0,25.5-11.4,25.5-25.5V338.2H171.5z M544.6,77.1
	l77.5-25.9l-18.6,75.4L526,152.5L544.6,77.1z M353.1,141l77.5-25.9L412,190.5l-77.5,25.9L353.1,141z M95.7,386.2
	c-21.5,0-38.9-17.5-38.9-38.9s17.5-38.9,38.9-38.9c21.5,0,38.9,17.5,38.9,38.9S117.1,386.2,95.7,386.2z M161.7,204.9l77.5-25.9
	l-18.6,75.4L143,280.3L161.7,204.9z M237.8,424.4h-81.7l41.6-65.6h81.7L237.8,424.4z M399.5,358.8h81.7l-41.6,65.6H358L399.5,358.8z
	 M379.5,675.8v-173l137.8,86.5L379.5,675.8z M641.5,424.4h-81.7l41.6-65.6h81.7L641.5,424.4z"/>
<g>
	<path id="_x30_6-Movie_Clapper_00000162312142594061316150000006524026322534890164_" class="st1" d="M165.9,324.5l43.8-0.1
		l169.7-0.5l401.2-1.2l-0.3-97c0-14.1-11.5-25.5-25.6-25.4l-671.2,2.1c-14.1,0-25.5,11.5-25.4,25.6l0.2,51.6 M601,229.1l81.7-0.3
		l-41.4,65.7l-81.7,0.3L601,229.1z M399.1,229.7l81.7-0.3l-41.4,65.7l-81.7,0.3L399.1,229.7z M197.3,230.3L279,230l-41.4,65.7
		l-81.7,0.3L197.3,230.3z"/>
	<path id="_x30_6-Movie_Clapper_00000010294606234009160540000014818443081034681236_" class="st1" d="M19.3,347
		c0,28.6,15.8,53.6,39.2,66.7v360.5c0,14.1,11.4,25.5,25.5,25.5h671.2c14.1,0,25.5-11.4,25.5-25.5V338H171.5
		c-1.8-42.6-42.1-66-82-66C46.3,272,19.3,309.2,19.3,347 M95.7,386c-21.5,0-38.9-17.5-38.9-38.9s17.5-38.9,38.9-38.9
		c21.5,0,38.9,17.5,38.9,38.9S117.1,386,95.7,386z M237.8,424.1h-81.7l41.6-65.6h81.7L237.8,424.1z M399.5,358.6h81.7l-41.6,65.6
		H358L399.5,358.6z M379.5,675.5v-173L517.2,589L379.5,675.5z M641.5,424.1h-81.7l41.6-65.6h81.7L641.5,424.1z"/>
</g>
</svg>
