<svg aria-hidden="true" style="position: absolute; width: 0; height: 0; overflow: hidden;" version="1.1" xmlns="http://www.w3.org/2000/svg" xmlns:xlink="http://www.w3.org/1999/xlink">
<defs>
<symbol id="icon-telegram" viewBox="0 0 32 32">
<path d="M29.402 2.839l-28.351 10.989c-1.141 0.512-1.527 1.537-0.276 2.093l7.273 2.323 17.585-10.924c0.96-0.686 1.943-0.503 1.097 0.251l-15.104 13.746-0.474 5.817c0.439 0.898 1.244 0.902 1.757 0.456l4.179-3.974 7.157 5.387c1.662 0.989 2.567 0.351 2.924-1.462l4.694-22.342c0.487-2.232-0.344-3.215-2.462-2.36z"></path>
</symbol>
<symbol id="icon-whatsapp" viewBox="0 0 32 32">
<path d="M2.672 29.333l1.803-6.624c-1.136-1.916-1.808-4.223-1.808-6.688 0-0.008 0-0.015 0-0.023v0.001c0-7.364 5.969-13.333 13.333-13.333s13.333 5.969 13.333 13.333-5.969 13.333-13.333 13.333c-0.006 0-0.014 0-0.021 0-2.463 0-4.77-0.671-6.747-1.84l0.062 0.034zM11.188 9.744c-0.182 0.012-0.351 0.060-0.502 0.137l0.007-0.003c-0.15 0.086-0.279 0.187-0.392 0.303l-0.001 0.001c-0.16 0.151-0.251 0.281-0.348 0.408-0.47 0.607-0.753 1.379-0.753 2.217 0 0.007 0 0.014 0 0.021v-0.001c0.003 0.653 0.173 1.289 0.44 1.884 0.545 1.203 1.443 2.476 2.628 3.656 0.285 0.284 0.564 0.569 0.864 0.835 1.416 1.252 3.135 2.196 5.032 2.708l0.088 0.020 0.759 0.116c0.247 0.013 0.493-0.005 0.741-0.017 0.41-0.022 0.789-0.133 1.125-0.315l-0.014 0.007c0.221-0.117 0.325-0.176 0.511-0.293 0 0 0.057-0.037 0.167-0.12 0.18-0.133 0.291-0.228 0.44-0.384 0.111-0.115 0.207-0.249 0.28-0.403 0.104-0.217 0.208-0.632 0.251-0.977 0.032-0.264 0.023-0.408 0.019-0.497-0.005-0.143-0.124-0.291-0.253-0.353l-0.776-0.348s-1.16-0.505-1.868-0.828c-0.069-0.031-0.15-0.051-0.235-0.055l-0.001-0c-0.020-0.002-0.043-0.003-0.066-0.003-0.17 0-0.324 0.066-0.439 0.173l0-0v-0.003c-0.007 0-0.096 0.076-1.060 1.244-0.086 0.115-0.222 0.188-0.374 0.188-0.041 0-0.081-0.005-0.12-0.015l0.003 0.001c-0.1-0.027-0.185-0.057-0.267-0.093l0.012 0.005c-0.165-0.069-0.223-0.096-0.336-0.145l-0.007-0.003c-0.803-0.355-1.494-0.802-2.102-1.341l0.008 0.007c-0.168-0.147-0.324-0.307-0.484-0.461-0.515-0.494-0.964-1.048-1.339-1.655l-0.021-0.036-0.079-0.127c-0.053-0.079-0.099-0.169-0.133-0.265l-0.003-0.009c-0.051-0.196 0.081-0.353 0.081-0.353s0.324-0.355 0.475-0.547c0.114-0.144 0.229-0.306 0.337-0.474l0.014-0.024c0.157-0.253 0.207-0.513 0.124-0.715-0.373-0.912-0.76-1.82-1.157-2.721-0.079-0.179-0.312-0.307-0.524-0.332-0.072-0.008-0.144-0.016-0.216-0.021-0.067-0.004-0.145-0.006-0.224-0.006-0.11 0-0.22 0.004-0.328 0.012l0.015-0.001z"></path>
</symbol>
<symbol id="icon-instagram" viewBox="0 0 32 32">
<path d="M23.169 0h-14.338c-4.869 0-8.831 3.962-8.831 8.831v14.338c0 4.869 3.961 8.831 8.831 8.831h14.338c4.87 0 8.831-3.962 8.831-8.831v-14.338c0-4.869-3.961-8.831-8.831-8.831zM29.161 23.169c0 3.304-2.688 5.992-5.992 5.992h-14.338c-3.304 0-5.991-2.688-5.991-5.992v-14.338c0-3.304 2.688-5.992 5.991-5.992h14.338c3.304 0 5.992 2.688 5.992 5.992v14.338z"></path>
<path d="M16 7.755c-4.547 0-8.246 3.699-8.246 8.246s3.699 8.245 8.246 8.245 8.246-3.699 8.246-8.245c0-4.547-3.699-8.246-8.246-8.246zM16 21.406c-2.981 0-5.406-2.425-5.406-5.406s2.425-5.406 5.406-5.406 5.406 2.425 5.406 5.406c0 2.981-2.425 5.406-5.406 5.406z"></path>
<path d="M24.591 5.347c-0.547 0-1.084 0.221-1.471 0.609-0.388 0.386-0.611 0.924-0.611 1.473 0 0.547 0.223 1.085 0.611 1.473 0.386 0.386 0.924 0.609 1.471 0.609 0.549 0 1.085-0.223 1.473-0.609 0.388-0.388 0.609-0.926 0.609-1.473 0-0.549-0.221-1.086-0.609-1.473-0.386-0.388-0.924-0.609-1.473-0.609z"></path>
</symbol>
<symbol id="icon-vimeo" viewBox="0 0 32 32">
<path d="M27.34 3.098c3.096 0.081 4.645 1.839 4.66 5.277 0 0.226-0.008 0.46-0.020 0.701-0.137 2.915-2.306 6.886-6.516 11.912-4.343 5.265-8.026 7.901-11.052 7.914-1.882 0-3.445-1.612-4.699-4.837l-1.317-4.421-1.302-4.415c-0.959-3.199-1.985-4.795-3.079-4.795-0.239 0-1.070 0.467-2.496 1.397l-1.52-1.797 2.358-1.959 2.319-1.939c2.077-1.664 3.656-2.563 4.74-2.697 0.144-0.015 0.289-0.020 0.436-0.020 2.224 0 3.613 1.598 4.158 4.795 0.304 1.824 0.556 3.306 0.76 4.445 0.198 1.142 0.364 1.937 0.496 2.39 0.735 3.024 1.527 4.544 2.379 4.556 0.654 0 1.661-0.985 3.021-2.956 1.329-2.025 2.045-3.524 2.137-4.501 0.029-0.198 0.040-0.384 0.040-0.556 0-1.322-0.728-1.98-2.177-1.98-0.735 0-1.52 0.157-2.359 0.459 1.504-4.637 4.396-6.96 8.673-6.975 0.12 0 0.238 0 0.359 0z"></path>
</symbol>
<symbol id="icon-tiktok" viewBox="0 0 32 32">
<path d="M25.762 7.416c-0.236-0.122-0.43-0.237-0.616-0.36l0.026 0.016c-0.573-0.382-1.070-0.807-1.512-1.283l-0.005-0.005c-1.131-1.294-1.554-2.607-1.709-3.527h0.006c-0.13-0.763-0.076-1.257-0.068-1.257h-5.152v19.924c0 0.267 0 0.532-0.011 0.793 0 0.032-0.003 0.063-0.005 0.098 0 0.014 0 0.029-0.003 0.044 0 0.004 0 0.008 0 0.011-0.117 1.49-0.964 2.76-2.18 3.461l-0.021 0.011c-0.611 0.354-1.344 0.563-2.126 0.563-0.002 0-0.004 0-0.006 0h0c-2.401 0-4.346-1.957-4.346-4.375s1.946-4.375 4.346-4.375c0.001 0 0.003 0 0.004 0 0.477 0 0.936 0.078 1.365 0.221l-0.030-0.009 0.006-5.246c-0.368-0.050-0.794-0.079-1.226-0.079-2.348 0-4.498 0.845-6.163 2.248l0.014-0.012c-0.877 0.765-1.612 1.664-2.18 2.67l-0.026 0.050c-0.217 0.375-1.038 1.882-1.138 4.328-0.063 1.388 0.354 2.826 0.553 3.421v0.012c0.125 0.35 0.609 1.544 1.399 2.551 0.641 0.809 1.376 1.504 2.199 2.084l0.033 0.022v-0.012l0.013 0.012c2.494 1.695 5.26 1.584 5.26 1.584 0.479-0.019 2.082 0 3.904-0.863 2.020-0.957 3.17-2.383 3.17-2.383 0.708-0.817 1.291-1.767 1.704-2.804l0.023-0.067c0.466-1.226 0.622-2.696 0.622-3.283v-10.57c0.063 0.037 0.895 0.588 0.895 0.588s1.199 0.769 3.071 1.269c1.343 0.356 3.151 0.431 3.151 0.431v-5.115c-0.634 0.069-1.921-0.131-3.238-0.788z"></path>
</symbol>
</defs>
</svg>
