<svg width="46" height="46" viewBox="0 0 46 46" fill="none" xmlns="http://www.w3.org/2000/svg">
<path fill-rule="evenodd" clip-rule="evenodd" d="M8.36364 0C6.14546 0 4.01814 0.881166 2.44965 2.44965C0.881166 4.01814 0 6.14546 0 8.36364V37.6364C0 39.8545 0.881166 41.9819 2.44965 43.5503C4.01814 45.1188 6.14546 46 8.36364 46H37.6364C39.8545 46 41.9819 45.1188 43.5503 43.5503C45.1188 41.9819 46 39.8545 46 37.6364V8.36364C46 6.14546 45.1188 4.01814 43.5503 2.44965C41.9819 0.881166 39.8545 0 37.6364 0H8.36364ZM23.7109 7.31818H28.7019C28.7019 10.6636 31.5288 14.4482 35.8319 14.4482V19.4371C32.8691 19.2322 30.337 18.7471 28.7019 17.2981V30.1279C28.7019 33.6929 25.8834 38.6818 19.4371 38.6818C11.5627 38.6818 10.1702 31.5518 10.1702 29.4149C10.1702 27.278 11.4247 20.148 20.148 20.148V25.139C17.8668 24.656 15.1591 26.5629 15.1591 29.4149C15.1591 32.9799 17.2981 33.6929 19.4371 33.6929C21.574 33.6929 23.713 31.5539 23.713 29.4149L23.7109 7.31818Z" fill="#FF69B4"/>
</svg>
