<?xml version="1.0" encoding="iso-8859-1"?>
<!-- Generator: Adobe Illustrator 26.0.1, SVG Export Plug-In . SVG Version: 6.00 Build 0)  -->
<svg version="1.1" id="Layer_1" xmlns="http://www.w3.org/2000/svg" xmlns:xlink="http://www.w3.org/1999/xlink" x="0px" y="0px"
	 viewBox="0 0 500 500" style="enable-background:new 0 0 500 500;" xml:space="preserve">
<g id="watermark_1_">
	<g>
		<g id="watermark" style="opacity:0.61;">
			<g>
				<g>
					<g>
						<g>
							<polygon style="fill:#FFFFFF;" points="213.765,461.172 208.204,474.017 205.268,474.017 199.726,461.172 202.938,461.172 
								206.846,470.347 210.81,461.172 							"/>
						</g>
						<g>
							<path style="fill:#FFFFFF;" d="M223.507,469.741h-7.469c0.275,1.23,1.321,1.982,2.826,1.982c1.046,0,1.798-0.312,2.477-0.954
								l1.523,1.651c-0.917,1.046-2.294,1.597-4.074,1.597c-3.413,0-5.634-2.147-5.634-5.083c0-2.954,2.257-5.083,5.267-5.083
								c2.899,0,5.138,1.945,5.138,5.12C223.562,469.191,223.526,469.503,223.507,469.741 M216.002,468.071h4.863
								c-0.202-1.248-1.138-2.055-2.422-2.055C217.139,466.016,216.204,466.805,216.002,468.071"/>
						</g>
						<g>
							<path style="fill:#FFFFFF;" d="M224.735,468.934c0-2.973,2.294-5.083,5.505-5.083c2.074,0,3.707,0.899,4.423,2.514
								l-2.22,1.193c-0.532-0.936-1.321-1.358-2.221-1.358c-1.45,0-2.587,1.009-2.587,2.734c0,1.725,1.138,2.734,2.587,2.734
								c0.899,0,1.688-0.404,2.221-1.358l2.22,1.211c-0.716,1.578-2.349,2.495-4.423,2.495
								C227.029,474.017,224.735,471.907,224.735,468.934"/>
						</g>
						<g>
							<path style="fill:#FFFFFF;" d="M242.828,473.393c-0.587,0.422-1.45,0.624-2.331,0.624c-2.33,0-3.688-1.193-3.688-3.542
								v-4.055h-1.523v-2.202h1.523v-2.404h2.863v2.404h2.459v2.202h-2.459v4.019c0,0.844,0.458,1.303,1.229,1.303
								c0.422,0,0.844-0.128,1.156-0.367L242.828,473.393z"/>
						</g>
					</g>
					<g>
						<path style="fill:#FFFFFF;" d="M262.474,463.997v2.643c-0.238-0.018-0.422-0.037-0.642-0.037
							c-1.578,0-2.624,0.862-2.624,2.753v4.661h-2.863v-9.873h2.734v1.303C259.776,464.493,260.951,463.997,262.474,463.997"/>
					</g>
					<g>
						<path style="fill:#FFFFFF;" d="M263.299,472.53l1.009-2.239c1.083,0.789,2.697,1.339,4.239,1.339
							c1.762,0,2.477-0.587,2.477-1.376c0-2.404-7.469-0.752-7.469-5.524c0-2.184,1.762-4,5.413-4c1.615,0,3.267,0.385,4.459,1.138
							l-0.918,2.257c-1.193-0.679-2.422-1.009-3.56-1.009c-1.761,0-2.44,0.66-2.44,1.468c0,2.367,7.468,0.734,7.468,5.45
							c0,2.147-1.78,3.982-5.45,3.982C266.492,474.017,264.437,473.411,263.299,472.53"/>
					</g>
					<g>
						<path style="fill:#FFFFFF;" d="M285.428,469.741h-7.469c0.275,1.23,1.321,1.982,2.826,1.982c1.046,0,1.798-0.312,2.477-0.954
							l1.523,1.651c-0.918,1.046-2.294,1.597-4.074,1.597c-3.413,0-5.634-2.147-5.634-5.083c0-2.954,2.257-5.083,5.267-5.083
							c2.9,0,5.138,1.945,5.138,5.12C285.484,469.191,285.447,469.503,285.428,469.741 M277.923,468.071h4.863
							c-0.202-1.248-1.138-2.055-2.422-2.055C279.061,466.016,278.125,466.805,277.923,468.071"/>
					</g>
					<g>
						<path style="fill:#FFFFFF;" d="M297.007,469.741h-7.469c0.275,1.23,1.321,1.982,2.826,1.982c1.046,0,1.798-0.312,2.477-0.954
							l1.523,1.651c-0.918,1.046-2.294,1.597-4.074,1.597c-3.413,0-5.634-2.147-5.634-5.083c0-2.954,2.257-5.083,5.267-5.083
							c2.899,0,5.138,1.945,5.138,5.12C297.062,469.191,297.025,469.503,297.007,469.741 M289.501,468.071h4.863
							c-0.202-1.248-1.138-2.055-2.422-2.055C290.639,466.016,289.703,466.805,289.501,468.071"/>
					</g>
					<g>
						<polygon style="fill:#FFFFFF;" points="303.208,470.145 301.831,471.503 301.831,474.017 298.969,474.017 298.969,460.401 
							301.831,460.401 301.831,468.108 306.016,464.144 309.429,464.144 305.318,468.328 309.796,474.017 306.327,474.017 						"/>
					</g>
					<g>
						<path style="fill:#FFFFFF;" d="M256.601,475.359L256.601,475.359l-2.86-2.86c-0.435,0.508-0.953,0.943-1.534,1.284
							c-0.092,0.069-0.186,0.136-0.283,0.199l3.027,3.027c0.456,0.456,1.195,0.456,1.65,0
							C257.057,476.554,257.057,475.815,256.601,475.359"/>
					</g>
					<g>
						<path style="fill:#FFFFFF;" d="M249.984,463.244c0.221-0.173,0.495-0.281,0.797-0.281c0.042,0,0.083,0.002,0.124,0.006
							c-0.214-0.156-0.478-0.249-0.764-0.249c-0.395,0-0.744,0.18-0.981,0.458c-0.051,0-0.1,0.006-0.151,0.008
							c0.039-0.077,0.064-0.162,0.064-0.255c0-0.234-0.143-0.434-0.346-0.519c0.087,0.126,0.138,0.279,0.138,0.445
							c0,0.122-0.031,0.237-0.081,0.341c-2.811,0.201-5.03,2.539-5.03,5.4c0,2.993,2.426,5.42,5.42,5.42
							c2.993,0,5.42-2.426,5.42-5.42C254.595,465.879,252.593,463.635,249.984,463.244 M247.983,464.656
							c0.435,0,0.844,0.112,1.199,0.309c0.374-0.245,0.82-0.387,1.299-0.387c0.711,0,1.348,0.312,1.784,0.806
							c-0.435-0.379-1.004-0.61-1.627-0.61c-0.449,0-0.87,0.12-1.234,0.329c-0.079,0.046-0.156,0.096-0.229,0.15
							c-0.065-0.048-0.133-0.093-0.204-0.134c-0.369-0.219-0.8-0.344-1.26-0.344c-0.3,0-0.588,0.054-0.854,0.152
							C247.196,464.754,247.578,464.656,247.983,464.656 M251.772,469.098c0.115,0.305,0.181,0.634,0.181,0.979
							c0,1.534-1.244,2.777-2.778,2.777c-1.534,0-2.777-1.243-2.777-2.777c0-0.345,0.066-0.674,0.181-0.979
							c-0.62-0.382-1.035-1.064-1.035-1.846c0-1.197,0.971-2.168,2.168-2.168c0.565,0,1.078,0.218,1.463,0.572
							c0.386-0.354,0.899-0.572,1.464-0.572c1.197,0,2.168,0.971,2.168,2.168C252.807,468.034,252.392,468.716,251.772,469.098"/>
					</g>
					<g>
						<path style="fill:#FFFFFF;" d="M251.666,467.061c0,0.497-0.404,0.901-0.901,0.901c-0.497,0-0.901-0.404-0.901-0.901
							s0.404-0.901,0.901-0.901c0.101,0,0.197,0.017,0.287,0.047c-0.03,0.062-0.045,0.132-0.045,0.204
							c0,0.273,0.221,0.494,0.494,0.494c0.05,0,0.099-0.008,0.146-0.022C251.66,466.941,251.666,467,251.666,467.061"/>
					</g>
					<g>
						<path style="fill:#FFFFFF;" d="M248.255,467.061c0,0.376-0.305,0.681-0.681,0.681c-0.376,0-0.681-0.305-0.681-0.681
							s0.305-0.681,0.681-0.681c0.076,0,0.149,0.013,0.217,0.035c-0.023,0.047-0.034,0.1-0.034,0.155
							c0,0.206,0.167,0.374,0.374,0.374c0.038,0,0.075-0.006,0.11-0.017C248.25,466.97,248.255,467.015,248.255,467.061"/>
					</g>
					<g>
						<g>
							<g>
								<rect x="242.908" y="467.83" style="fill:#FFFFFF;" width="0.616" height="0.616"/>
							</g>
							<g>
								<rect x="254.827" y="467.83" style="fill:#FFFFFF;" width="0.616" height="0.616"/>
							</g>
							<g>
								<path style="fill:#FFFFFF;" d="M255.205,468.082h-0.14c0-3.248-2.642-5.89-5.89-5.89c-3.248,0-5.89,2.642-5.89,5.89h-0.14
									c0-1.611,0.627-3.125,1.766-4.264c1.139-1.139,2.653-1.766,4.264-1.766c1.611,0,3.125,0.627,4.264,1.766
									C254.578,464.957,255.205,466.471,255.205,468.082"/>
							</g>
						</g>
						<g>
							<rect x="248.868" y="461.814" style="fill:#FFFFFF;" width="0.616" height="0.616"/>
						</g>
						<g>
							<rect x="244.95" y="462.052" style="fill:#FFFFFF;" width="8.45" height="0.14"/>
						</g>
						<g>
							<path style="fill:#FFFFFF;" d="M245.174,462.15c0,0.108-0.088,0.196-0.196,0.196c-0.108,0-0.196-0.088-0.196-0.196
								c0-0.108,0.088-0.196,0.196-0.196C245.086,461.954,245.174,462.042,245.174,462.15"/>
						</g>
						<g>
							<path style="fill:#FFFFFF;" d="M253.596,462.15c0,0.108-0.088,0.196-0.196,0.196c-0.108,0-0.196-0.088-0.196-0.196
								c0-0.108,0.088-0.196,0.196-0.196C253.509,461.954,253.596,462.042,253.596,462.15"/>
						</g>
					</g>
				</g>
				<g>
					<path style="fill:#FFFFFF;" d="M314.356,473.409c0,1.559-2.364,1.559-2.364,0C311.993,471.851,314.356,471.851,314.356,473.409
						z"/>
				</g>
				<g>
					<g>
						<g>
							<path style="fill:#FFFFFF;" d="M161.739,466.549l1.772,6.088l1.855-6.088h2.215l-2.823,8.14h-2.33l-0.837-2.396l-0.722-2.708
								l-0.722,2.708l-0.837,2.396h-2.33l-2.839-8.14h2.231l1.855,6.088l1.756-6.088H161.739z"/>
						</g>
						<g>
							<path style="fill:#FFFFFF;" d="M176.713,466.549l1.772,6.088l1.855-6.088h2.215l-2.823,8.14h-2.33l-0.837-2.396l-0.722-2.708
								l-0.722,2.708l-0.837,2.396h-2.33l-2.839-8.14h2.231l1.855,6.088l1.756-6.088H176.713z"/>
						</g>
						<g>
							<path style="fill:#FFFFFF;" d="M191.687,466.549l1.772,6.088l1.855-6.088h2.215l-2.823,8.14h-2.33l-0.837-2.396l-0.722-2.708
								l-0.722,2.708l-0.837,2.396h-2.33l-2.839-8.14h2.231l1.855,6.088l1.756-6.088H191.687z"/>
						</g>
					</g>
					<g>
						<path style="fill:#FFFFFF;" d="M200.908,473.52c0,1.559-2.364,1.559-2.364,0C198.545,471.962,200.908,471.962,200.908,473.52z
							"/>
					</g>
					<g>
						<path style="fill:#FFFFFF;" d="M322.71,473.409c-0.935,0.919-1.919,1.28-3.117,1.28c-2.346,0-4.3-1.411-4.3-4.282
							s1.953-4.284,4.3-4.284c1.149,0,2.035,0.329,2.921,1.199l-1.264,1.329c-0.476-0.428-1.066-0.64-1.623-0.64
							c-1.346,0-2.33,0.985-2.33,2.396c0,1.542,1.05,2.362,2.297,2.362c0.64,0,1.28-0.18,1.772-0.672L322.71,473.409z"/>
					</g>
					<g>
						<path style="fill:#FFFFFF;" d="M331.805,470.472c0,2.33-1.591,4.217-4.217,4.217c-2.626,0-4.201-1.887-4.201-4.217
							c0-2.314,1.609-4.217,4.185-4.217C330.149,466.255,331.805,468.158,331.805,470.472z M325.389,470.472
							c0,1.231,0.739,2.38,2.199,2.38c1.46,0,2.199-1.149,2.199-2.38c0-1.215-0.854-2.396-2.199-2.396
							C326.144,468.077,325.389,469.258,325.389,470.472z"/>
					</g>
					<g>
						<path style="fill:#FFFFFF;" d="M338.572,474.689v-4.332c0-1.068-0.559-2.035-1.658-2.035c-1.082,0-1.722,0.967-1.722,2.035
							v4.332h-2.003v-8.107h1.855l0.148,0.985c0.426-0.82,1.362-1.116,2.133-1.116c0.969,0,1.937,0.394,2.396,1.51
							c0.723-1.149,1.658-1.478,2.708-1.478c2.297,0,3.43,1.412,3.43,3.84v4.365h-2.003v-4.365c0-1.066-0.442-1.97-1.526-1.97
							c-1.082,0-1.756,0.935-1.756,2.003v4.332H338.572z"/>
					</g>
				</g>
			</g>
		</g>
		<g style="opacity:0.61;">
			<g>
				<g>
					<path style="fill:#FFFFFF;" d="M345.988,431.299c-0.006-1.224-0.959-2.121-2.189-2.14c-0.924-0.014-0.832,0.12-0.834-0.867
						c-0.003-1.097-0.007-2.194,0.003-3.292c0.003-0.379-0.112-0.691-0.362-0.976c-2.342-2.668-4.678-5.342-7.019-8.011
						c-0.12-0.137-0.275-0.244-0.414-0.366c-6.214,0-12.427,0-18.641,0c-0.794,0.293-1.14,0.868-1.138,1.709
						c0.01,3.748,0.004,7.496,0.004,11.243c0,0.556-0.003,0.589-0.55,0.551c-1.497-0.102-2.516,0.986-2.497,2.492
						c0.044,3.476,0.013,6.953,0.014,10.429c0.001,1.58,0.867,2.443,2.45,2.449c0.582,0.002,0.582,0.002,0.582,0.6
						c0,2.219-0.001,4.438,0.001,6.657c0.001,1.192,0.58,1.771,1.768,1.771c8.013,0.001,16.027,0.001,24.04,0
						c1.168,0,1.755-0.583,1.757-1.745c0.002-2.256,0-4.512,0.001-6.768c0-0.512,0.002-0.511,0.52-0.515
						c0.271-0.002,0.541,0.008,0.809-0.058c0.996-0.246,1.69-1.044,1.694-2.069C346.003,438.696,346.005,434.997,345.988,431.299z
						 M317.537,417.162c5.337,0,10.674,0,16.01,0c0.548,0,0.554,0.007,0.554,0.561c0.001,2.243-0.001,4.486,0.001,6.73
						c0.001,0.811,0.249,1.059,1.06,1.059c1.91,0.001,3.821,0,5.731,0.001c0.458,0,0.479,0.021,0.481,0.483
						c0.003,0.887,0.002,1.775,0,2.662c-0.001,0.477-0.024,0.498-0.504,0.499c-3.895,0.001-7.79,0-11.684,0
						c-3.882,0-7.765,0-11.647,0c-0.55,0-0.552-0.001-0.552-0.561c-0.001-3.624-0.001-7.247,0-10.871
						C316.987,417.166,316.991,417.162,317.537,417.162z M340.822,451.579c-3.883,0.001-7.766,0-11.65,0c-3.871,0-7.742,0-11.613,0
						c-0.572,0-0.574-0.002-0.574-0.579c-0.001-1.997-0.001-3.994,0.001-5.991c0-0.464,0.023-0.486,0.478-0.487
						c7.803-0.001,15.607-0.001,23.41,0c0.478,0,0.499,0.02,0.499,0.503c0.002,1.997,0.001,3.994,0,5.991
						C341.375,451.574,341.37,451.579,340.822,451.579z"/>
				</g>
				<g>
					<g>
						<rect x="327.418" y="417.053" style="fill:#FFFFFF;" width="1.757" height="1.054"/>
					</g>
					<g>
						<rect x="325.662" y="418.107" style="fill:#FFFFFF;" width="1.757" height="1.054"/>
					</g>
					<g>
						<rect x="327.418" y="419.161" style="fill:#FFFFFF;" width="1.757" height="1.054"/>
					</g>
					<g>
						<rect x="325.662" y="420.215" style="fill:#FFFFFF;" width="1.757" height="1.054"/>
					</g>
					<g>
						<rect x="327.418" y="421.269" style="fill:#FFFFFF;" width="1.757" height="1.054"/>
					</g>
					<g>
						<rect x="325.662" y="422.323" style="fill:#FFFFFF;" width="1.757" height="1.054"/>
					</g>
					<g>
						<rect x="327.418" y="423.378" style="fill:#FFFFFF;" width="1.757" height="1.054"/>
					</g>
					<g>
						<rect x="325.662" y="424.432" style="fill:#FFFFFF;" width="1.757" height="1.054"/>
					</g>
					<g>
						<rect x="327.418" y="425.486" style="fill:#FFFFFF;" width="1.757" height="1.054"/>
					</g>
					<g>
						<rect x="325.662" y="426.54" style="fill:#FFFFFF;" width="1.757" height="1.054"/>
					</g>
					<g>
						<rect x="327.418" y="427.594" style="fill:#FFFFFF;" width="1.757" height="1.054"/>
					</g>
					<g>
						<rect x="325.662" y="428.648" style="fill:#FFFFFF;" width="1.757" height="1.054"/>
					</g>
				</g>
			</g>
			<g>
				<path style="fill:#FFFFFF;" d="M187.637,431.299c-0.006-1.224-0.959-2.121-2.189-2.14c-0.924-0.014-0.832,0.12-0.834-0.867
					c-0.003-1.097-0.007-2.194,0.003-3.292c0.003-0.379-0.112-0.691-0.362-0.976c-2.342-2.668-4.678-5.342-7.019-8.011
					c-0.12-0.137-0.275-0.244-0.414-0.366c-6.214,0-12.427,0-18.641,0c-0.794,0.293-1.14,0.868-1.138,1.709
					c0.01,3.748,0.004,7.496,0.004,11.243c0,0.556-0.003,0.589-0.55,0.551c-1.497-0.102-2.516,0.986-2.497,2.492
					c0.044,3.476,0.013,6.953,0.014,10.429c0.001,1.58,0.867,2.443,2.45,2.449c0.582,0.002,0.582,0.002,0.582,0.6
					c0,2.219-0.001,4.438,0.001,6.657c0.001,1.192,0.58,1.771,1.768,1.771c8.013,0.001,16.027,0.001,24.04,0
					c1.168,0,1.755-0.583,1.757-1.745c0.002-2.256,0-4.512,0.001-6.768c0-0.512,0.002-0.511,0.52-0.515
					c0.271-0.002,0.541,0.008,0.809-0.058c0.996-0.246,1.69-1.044,1.694-2.069C187.652,438.696,187.655,434.997,187.637,431.299z
					 M159.187,417.162c5.337,0,10.674,0,16.01,0c0.548,0,0.554,0.007,0.554,0.561c0.001,2.243-0.001,4.486,0.001,6.73
					c0.001,0.811,0.249,1.059,1.06,1.059c1.91,0.001,3.821,0,5.731,0.001c0.458,0,0.479,0.021,0.481,0.483
					c0.003,0.887,0.002,1.775,0,2.662c-0.001,0.477-0.024,0.498-0.504,0.499c-3.895,0.001-7.79,0-11.684,0
					c-3.882,0-7.765,0-11.647,0c-0.55,0-0.552-0.001-0.552-0.561c-0.001-3.624-0.001-7.247,0-10.871
					C158.636,417.166,158.64,417.162,159.187,417.162z M182.472,451.579c-3.883,0.001-7.766,0-11.65,0c-3.871,0-7.742,0-11.613,0
					c-0.572,0-0.574-0.002-0.574-0.579c-0.001-1.997-0.001-3.994,0.001-5.991c0-0.464,0.023-0.486,0.478-0.487
					c7.803-0.001,15.607-0.001,23.41,0c0.478,0,0.499,0.02,0.499,0.503c0.002,1.997,0.001,3.994,0,5.991
					C183.024,451.574,183.019,451.579,182.472,451.579z"/>
			</g>
			<g>
				<path style="fill:#FFFFFF;" d="M159.779,440.669v-7.897h2.779c0.375,0,0.726,0.061,1.053,0.182
					c0.327,0.121,0.612,0.292,0.855,0.513c0.242,0.221,0.434,0.483,0.573,0.789c0.14,0.305,0.21,0.642,0.21,1.009
					c0,0.375-0.07,0.715-0.21,1.02c-0.14,0.305-0.331,0.568-0.573,0.789c-0.243,0.221-0.528,0.392-0.855,0.513
					c-0.327,0.121-0.678,0.182-1.053,0.182h-1.29v2.901H159.779z M162.58,436.356c0.39,0,0.684-0.111,0.882-0.331
					c0.199-0.22,0.298-0.474,0.298-0.761c0-0.14-0.024-0.276-0.072-0.408c-0.048-0.132-0.121-0.248-0.221-0.347
					c-0.099-0.099-0.223-0.178-0.37-0.237c-0.147-0.059-0.32-0.089-0.518-0.089h-1.312v2.173H162.58z"/>
				<path style="fill:#FFFFFF;" d="M166.308,432.771h1.731l3.177,5.294h0.088l-0.088-1.522v-3.772h1.478v7.897h-1.566l-3.353-5.592
					h-0.088l0.088,1.522v4.07h-1.467V432.771z"/>
				<path style="fill:#FFFFFF;" d="M177.922,436.334h3.872c0.022,0.089,0.04,0.195,0.055,0.32c0.014,0.125,0.022,0.25,0.022,0.375
					c0,0.507-0.077,0.985-0.231,1.434c-0.154,0.449-0.397,0.849-0.728,1.202c-0.353,0.375-0.776,0.666-1.268,0.871
					c-0.493,0.206-1.055,0.309-1.688,0.309c-0.574,0-1.114-0.103-1.622-0.309c-0.507-0.206-0.948-0.492-1.323-0.86
					c-0.375-0.367-0.673-0.803-0.894-1.307c-0.221-0.504-0.331-1.053-0.331-1.649c0-0.595,0.11-1.145,0.331-1.649
					c0.221-0.504,0.518-0.939,0.894-1.307c0.375-0.367,0.816-0.654,1.323-0.86c0.507-0.206,1.048-0.309,1.622-0.309
					c0.64,0,1.211,0.11,1.715,0.331c0.504,0.221,0.935,0.526,1.296,0.915l-1.025,1.004c-0.258-0.272-0.544-0.48-0.861-0.623
					c-0.316-0.143-0.695-0.215-1.136-0.215c-0.361,0-0.703,0.065-1.026,0.193c-0.324,0.129-0.607,0.311-0.85,0.546
					c-0.242,0.235-0.436,0.52-0.579,0.855c-0.143,0.335-0.215,0.708-0.215,1.119c0,0.412,0.072,0.785,0.215,1.12
					c0.143,0.335,0.338,0.62,0.584,0.855c0.246,0.235,0.531,0.418,0.855,0.546c0.323,0.129,0.669,0.193,1.037,0.193
					c0.419,0,0.773-0.061,1.064-0.182c0.29-0.121,0.538-0.278,0.744-0.469c0.148-0.132,0.275-0.3,0.381-0.502
					c0.106-0.202,0.189-0.428,0.248-0.678h-2.482V436.334z"/>
			</g>
			<g>
				<path style="fill:#FFFFFF;" d="M224.019,431.299c-0.006-1.224-0.959-2.121-2.189-2.14c-0.924-0.014-0.832,0.12-0.834-0.867
					c-0.003-1.097-0.007-2.194,0.003-3.292c0.003-0.379-0.112-0.691-0.362-0.976c-2.342-2.668-4.678-5.342-7.019-8.011
					c-0.12-0.137-0.275-0.244-0.414-0.366c-6.214,0-12.427,0-18.641,0c-0.794,0.293-1.14,0.868-1.138,1.709
					c0.01,3.748,0.004,7.496,0.004,11.243c0,0.556-0.003,0.589-0.55,0.551c-1.497-0.102-2.516,0.986-2.497,2.492
					c0.044,3.476,0.013,6.953,0.014,10.429c0.001,1.58,0.867,2.443,2.45,2.449c0.582,0.002,0.582,0.002,0.582,0.6
					c0,2.219-0.001,4.438,0.001,6.657c0.001,1.192,0.58,1.771,1.768,1.771c8.013,0.001,16.027,0.001,24.04,0
					c1.168,0,1.755-0.583,1.757-1.745c0.002-2.256,0-4.512,0.001-6.768c0-0.512,0.002-0.511,0.52-0.515
					c0.271-0.002,0.541,0.008,0.809-0.058c0.997-0.246,1.69-1.044,1.694-2.069C224.034,438.696,224.036,434.997,224.019,431.299z
					 M195.568,417.162c5.337,0,10.674,0,16.01,0c0.548,0,0.554,0.007,0.554,0.561c0.001,2.243-0.001,4.486,0.001,6.73
					c0.001,0.811,0.249,1.059,1.06,1.059c1.91,0.001,3.821,0,5.731,0.001c0.458,0,0.479,0.021,0.481,0.483
					c0.003,0.887,0.002,1.775,0,2.662c-0.001,0.477-0.024,0.498-0.504,0.499c-3.895,0.001-7.79,0-11.684,0
					c-3.882,0-7.765,0-11.647,0c-0.55,0-0.552-0.001-0.552-0.561c-0.001-3.624-0.001-7.247,0-10.871
					C195.018,417.166,195.022,417.162,195.568,417.162z M218.854,451.579c-3.883,0.001-7.766,0-11.65,0c-3.871,0-7.742,0-11.613,0
					c-0.572,0-0.574-0.002-0.574-0.579c-0.001-1.997-0.001-3.994,0.001-5.991c0-0.464,0.023-0.486,0.478-0.487
					c7.803-0.001,15.607-0.001,23.41,0c0.478,0,0.499,0.02,0.499,0.503c0.002,1.997,0.001,3.994,0,5.991
					C219.406,451.574,219.401,451.579,218.854,451.579z"/>
			</g>
			<g>
				<path style="fill:#FFFFFF;" d="M205.111,432.771h1.699l2.967,7.897h-1.644l-0.651-1.886h-3.044l-0.651,1.886h-1.643
					L205.111,432.771z M206.997,437.415l-0.706-1.974l-0.287-0.96h-0.088l-0.287,0.96l-0.706,1.974H206.997z"/>
				<path style="fill:#FFFFFF;" d="M211.331,434.536c-0.125,0-0.245-0.024-0.359-0.072c-0.114-0.048-0.213-0.114-0.298-0.199
					c-0.084-0.084-0.151-0.182-0.198-0.292c-0.048-0.11-0.072-0.232-0.072-0.364s0.024-0.254,0.072-0.364
					c0.048-0.11,0.114-0.208,0.198-0.292c0.084-0.084,0.184-0.151,0.298-0.198c0.114-0.048,0.233-0.072,0.359-0.072
					c0.257,0,0.478,0.09,0.662,0.27c0.184,0.181,0.276,0.399,0.276,0.656s-0.092,0.476-0.276,0.656
					C211.809,434.446,211.589,434.536,211.331,434.536z M210.615,440.669v-5.404h1.445v5.404H210.615z"/>
			</g>
			<g>
				<path style="fill:#FFFFFF;" d="M261.044,431.299c-0.006-1.224-0.959-2.121-2.189-2.14c-0.924-0.014-0.832,0.12-0.834-0.867
					c-0.003-1.097-0.007-2.194,0.003-3.292c0.003-0.379-0.112-0.691-0.362-0.976c-2.342-2.668-4.678-5.342-7.019-8.011
					c-0.12-0.137-0.275-0.244-0.414-0.366c-6.214,0-12.427,0-18.641,0c-0.794,0.293-1.14,0.868-1.138,1.709
					c0.01,3.748,0.004,7.496,0.004,11.243c0,0.556-0.003,0.589-0.55,0.551c-1.497-0.102-2.516,0.986-2.497,2.492
					c0.044,3.476,0.013,6.953,0.014,10.429c0.001,1.58,0.867,2.443,2.45,2.449c0.582,0.002,0.582,0.002,0.582,0.6
					c0,2.219-0.001,4.438,0.001,6.657c0.001,1.192,0.58,1.771,1.768,1.771c8.013,0.001,16.027,0.001,24.04,0
					c1.168,0,1.755-0.583,1.757-1.745c0.002-2.256,0-4.512,0.001-6.768c0-0.512,0.002-0.511,0.52-0.515
					c0.271-0.002,0.541,0.008,0.809-0.058c0.996-0.246,1.69-1.044,1.694-2.069C261.059,438.696,261.061,434.997,261.044,431.299z
					 M232.593,417.162c5.337,0,10.674,0,16.01,0c0.548,0,0.554,0.007,0.554,0.561c0.001,2.243-0.001,4.486,0.001,6.73
					c0.001,0.811,0.249,1.059,1.06,1.059c1.91,0.001,3.821,0,5.731,0.001c0.458,0,0.479,0.021,0.481,0.483
					c0.003,0.887,0.002,1.775,0,2.662c-0.001,0.477-0.024,0.498-0.504,0.499c-3.895,0.001-7.79,0-11.684,0
					c-3.882,0-7.765,0-11.647,0c-0.55,0-0.552-0.001-0.552-0.561c-0.001-3.624-0.001-7.247,0-10.871
					C232.042,417.166,232.047,417.162,232.593,417.162z M255.878,451.579c-3.883,0.001-7.766,0-11.65,0c-3.871,0-7.742,0-11.613,0
					c-0.572,0-0.574-0.002-0.574-0.579c-0.001-1.997-0.001-3.994,0.001-5.991c0-0.464,0.023-0.486,0.478-0.487
					c7.803-0.001,15.607-0.001,23.41,0c0.478,0,0.499,0.02,0.499,0.503c0.002,1.997,0.001,3.994,0,5.991
					C256.431,451.574,256.426,451.579,255.878,451.579z"/>
			</g>
			<g>
				<path style="fill:#FFFFFF;" d="M236.361,440.845c-0.338,0-0.662-0.048-0.971-0.143c-0.309-0.095-0.592-0.239-0.849-0.43
					c-0.257-0.191-0.481-0.425-0.673-0.7c-0.191-0.276-0.342-0.597-0.452-0.965l1.401-0.551c0.103,0.397,0.283,0.726,0.54,0.987
					c0.257,0.261,0.596,0.392,1.015,0.392c0.154,0,0.303-0.02,0.447-0.061c0.143-0.04,0.272-0.099,0.386-0.176
					s0.204-0.175,0.27-0.292c0.066-0.118,0.099-0.254,0.099-0.408c0-0.147-0.026-0.279-0.077-0.397
					c-0.051-0.117-0.138-0.227-0.259-0.331c-0.121-0.103-0.28-0.202-0.475-0.298c-0.195-0.095-0.435-0.195-0.722-0.298l-0.485-0.176
					c-0.213-0.073-0.429-0.173-0.645-0.298c-0.217-0.125-0.413-0.276-0.59-0.452c-0.177-0.176-0.322-0.384-0.436-0.623
					c-0.114-0.239-0.171-0.509-0.171-0.81c0-0.309,0.06-0.597,0.182-0.866c0.121-0.268,0.294-0.503,0.518-0.706
					c0.224-0.202,0.492-0.36,0.805-0.474s0.66-0.171,1.042-0.171c0.397,0,0.74,0.053,1.031,0.16
					c0.291,0.107,0.537,0.243,0.739,0.408c0.202,0.165,0.366,0.348,0.491,0.546c0.125,0.199,0.217,0.386,0.276,0.563l-1.312,0.551
					c-0.074-0.221-0.208-0.419-0.402-0.596c-0.195-0.176-0.462-0.265-0.8-0.265c-0.324,0-0.592,0.075-0.805,0.226
					c-0.213,0.151-0.32,0.348-0.32,0.59c0,0.235,0.103,0.436,0.309,0.601c0.206,0.165,0.533,0.325,0.982,0.48l0.497,0.165
					c0.316,0.111,0.605,0.237,0.866,0.381c0.261,0.143,0.485,0.314,0.673,0.513c0.187,0.199,0.331,0.425,0.43,0.678
					c0.1,0.254,0.149,0.546,0.149,0.877c0,0.412-0.083,0.767-0.248,1.064c-0.165,0.298-0.377,0.542-0.634,0.734
					c-0.258,0.191-0.548,0.335-0.872,0.43C236.986,440.797,236.67,440.845,236.361,440.845z"/>
				<path style="fill:#FFFFFF;" d="M239.516,432.771h1.61l1.633,4.754l0.287,1.015h0.088l0.309-1.015l1.699-4.754h1.61l-2.879,7.897
					h-1.566L239.516,432.771z"/>
				<path style="fill:#FFFFFF;" d="M251.097,436.334h3.871c0.022,0.089,0.04,0.195,0.055,0.32c0.015,0.125,0.023,0.25,0.023,0.375
					c0,0.507-0.078,0.985-0.232,1.434c-0.154,0.449-0.397,0.849-0.728,1.202c-0.353,0.375-0.775,0.666-1.268,0.871
					c-0.493,0.206-1.055,0.309-1.688,0.309c-0.574,0-1.114-0.103-1.621-0.309c-0.507-0.206-0.949-0.492-1.324-0.86
					c-0.375-0.367-0.673-0.803-0.894-1.307c-0.22-0.504-0.331-1.053-0.331-1.649c0-0.595,0.11-1.145,0.331-1.649
					c0.221-0.504,0.518-0.939,0.894-1.307c0.375-0.367,0.816-0.654,1.324-0.86c0.507-0.206,1.047-0.309,1.621-0.309
					c0.64,0,1.211,0.11,1.715,0.331c0.504,0.221,0.936,0.526,1.296,0.915l-1.026,1.004c-0.257-0.272-0.544-0.48-0.861-0.623
					c-0.316-0.143-0.694-0.215-1.136-0.215c-0.36,0-0.702,0.065-1.026,0.193c-0.323,0.129-0.607,0.311-0.849,0.546
					c-0.243,0.235-0.436,0.52-0.579,0.855c-0.143,0.335-0.215,0.708-0.215,1.119c0,0.412,0.072,0.785,0.215,1.12
					c0.143,0.335,0.338,0.62,0.585,0.855c0.246,0.235,0.531,0.418,0.854,0.546c0.324,0.129,0.669,0.193,1.037,0.193
					c0.419,0,0.774-0.061,1.064-0.182c0.29-0.121,0.539-0.278,0.745-0.469c0.147-0.132,0.274-0.3,0.38-0.502
					c0.107-0.202,0.189-0.428,0.248-0.678h-2.482V436.334z"/>
			</g>
			<g>
				<path style="fill:#FFFFFF;" d="M297.3,431.299c-0.006-1.224-0.959-2.121-2.189-2.14c-0.924-0.014-0.832,0.12-0.834-0.867
					c-0.003-1.097-0.007-2.194,0.003-3.292c0.003-0.379-0.112-0.691-0.362-0.976c-2.342-2.668-4.678-5.342-7.019-8.011
					c-0.12-0.137-0.275-0.244-0.414-0.366c-6.214,0-12.427,0-18.641,0c-0.794,0.293-1.14,0.868-1.138,1.709
					c0.01,3.748,0.004,7.496,0.004,11.243c0,0.556-0.003,0.589-0.55,0.551c-1.497-0.102-2.516,0.986-2.497,2.492
					c0.044,3.476,0.013,6.953,0.014,10.429c0.001,1.58,0.867,2.443,2.45,2.449c0.582,0.002,0.582,0.002,0.582,0.6
					c0,2.219-0.001,4.438,0.001,6.657c0.001,1.192,0.58,1.771,1.768,1.771c8.013,0.001,16.027,0.001,24.04,0
					c1.168,0,1.755-0.583,1.757-1.745c0.002-2.256,0-4.512,0.001-6.768c0-0.512,0.002-0.511,0.52-0.515
					c0.271-0.002,0.541,0.008,0.809-0.058c0.996-0.246,1.69-1.044,1.694-2.069C297.315,438.696,297.318,434.997,297.3,431.299z
					 M268.85,417.162c5.337,0,10.674,0,16.01,0c0.548,0,0.554,0.007,0.554,0.561c0.001,2.243-0.001,4.486,0.001,6.73
					c0.001,0.811,0.249,1.059,1.06,1.059c1.91,0.001,3.821,0,5.731,0.001c0.458,0,0.479,0.021,0.481,0.483
					c0.003,0.887,0.002,1.775,0,2.662c-0.001,0.477-0.024,0.498-0.504,0.499c-3.895,0.001-7.79,0-11.684,0
					c-3.882,0-7.765,0-11.647,0c-0.55,0-0.552-0.001-0.552-0.561c-0.001-3.624-0.001-7.247,0-10.871
					C268.299,417.166,268.303,417.162,268.85,417.162z M292.135,451.579c-3.883,0.001-7.766,0-11.65,0c-3.871,0-7.742,0-11.613,0
					c-0.572,0-0.574-0.002-0.574-0.579c-0.001-1.997-0.001-3.994,0.001-5.991c0-0.464,0.023-0.486,0.478-0.487
					c7.803-0.001,15.607-0.001,23.41,0c0.478,0,0.499,0.02,0.499,0.503c0.001,1.997,0.001,3.994,0,5.991
					C292.687,451.574,292.682,451.579,292.135,451.579z"/>
			</g>
			<g>
				<path style="fill:#FFFFFF;" d="M272.966,434.183v1.831h3.165v1.412h-3.165v1.831h3.518v1.412h-5.007v-7.897h5.007v1.412H272.966
					z"/>
				<path style="fill:#FFFFFF;" d="M277.852,440.669v-7.897h2.779c0.375,0,0.726,0.061,1.053,0.182
					c0.327,0.121,0.612,0.292,0.855,0.513c0.243,0.221,0.434,0.483,0.574,0.789c0.14,0.305,0.209,0.642,0.209,1.009
					c0,0.375-0.07,0.715-0.209,1.02c-0.14,0.305-0.331,0.568-0.574,0.789c-0.243,0.221-0.528,0.392-0.855,0.513
					c-0.327,0.121-0.678,0.182-1.053,0.182h-1.29v2.901H277.852z M280.653,436.356c0.389,0,0.684-0.111,0.882-0.331
					c0.199-0.22,0.298-0.474,0.298-0.761c0-0.14-0.024-0.276-0.072-0.408c-0.048-0.132-0.121-0.248-0.221-0.347
					c-0.099-0.099-0.222-0.178-0.37-0.237c-0.147-0.059-0.32-0.089-0.518-0.089h-1.312v2.173H280.653z"/>
				<path style="fill:#FFFFFF;" d="M286.797,440.845c-0.338,0-0.662-0.048-0.971-0.143c-0.309-0.095-0.592-0.239-0.849-0.43
					c-0.257-0.191-0.482-0.425-0.673-0.7c-0.191-0.276-0.342-0.597-0.452-0.965l1.401-0.551c0.103,0.397,0.283,0.726,0.541,0.987
					c0.257,0.261,0.595,0.392,1.015,0.392c0.154,0,0.303-0.02,0.447-0.061c0.143-0.04,0.272-0.099,0.386-0.176
					c0.114-0.077,0.204-0.175,0.27-0.292c0.066-0.118,0.1-0.254,0.1-0.408c0-0.147-0.026-0.279-0.077-0.397
					c-0.051-0.117-0.138-0.227-0.259-0.331c-0.121-0.103-0.279-0.202-0.474-0.298c-0.195-0.095-0.436-0.195-0.723-0.298
					l-0.485-0.176c-0.213-0.073-0.428-0.173-0.645-0.298c-0.217-0.125-0.414-0.276-0.59-0.452c-0.176-0.176-0.322-0.384-0.436-0.623
					c-0.114-0.239-0.171-0.509-0.171-0.81c0-0.309,0.061-0.597,0.182-0.866c0.121-0.268,0.294-0.503,0.518-0.706
					c0.224-0.202,0.493-0.36,0.805-0.474c0.312-0.114,0.66-0.171,1.042-0.171c0.397,0,0.741,0.053,1.031,0.16
					c0.29,0.107,0.537,0.243,0.739,0.408c0.202,0.165,0.365,0.348,0.491,0.546c0.125,0.199,0.217,0.386,0.276,0.563l-1.312,0.551
					c-0.074-0.221-0.208-0.419-0.403-0.596c-0.195-0.176-0.462-0.265-0.799-0.265c-0.324,0-0.592,0.075-0.805,0.226
					c-0.213,0.151-0.32,0.348-0.32,0.59c0,0.235,0.103,0.436,0.309,0.601c0.206,0.165,0.533,0.325,0.982,0.48l0.496,0.165
					c0.316,0.111,0.605,0.237,0.866,0.381c0.261,0.143,0.485,0.314,0.673,0.513c0.187,0.199,0.331,0.425,0.43,0.678
					c0.099,0.254,0.149,0.546,0.149,0.877c0,0.412-0.083,0.767-0.248,1.064c-0.165,0.298-0.377,0.542-0.634,0.734
					c-0.258,0.191-0.548,0.335-0.872,0.43C287.422,440.797,287.105,440.845,286.797,440.845z"/>
			</g>
			<g>
				<path style="fill:#FFFFFF;" d="M321.394,439.168l4.004-4.985h-3.827v-1.412h5.559v1.5l-3.96,4.985h4.004v1.412h-5.779V439.168z"
					/>
				<path style="fill:#FFFFFF;" d="M328.409,432.771h1.489v7.897h-1.489V432.771z"/>
				<path style="fill:#FFFFFF;" d="M331.486,440.669v-7.897h2.779c0.375,0,0.726,0.061,1.053,0.182
					c0.327,0.121,0.612,0.292,0.855,0.513s0.434,0.483,0.574,0.789c0.14,0.305,0.209,0.642,0.209,1.009
					c0,0.375-0.07,0.715-0.209,1.02c-0.14,0.305-0.331,0.568-0.574,0.789c-0.243,0.221-0.528,0.392-0.855,0.513
					c-0.327,0.121-0.678,0.182-1.053,0.182h-1.29v2.901H331.486z M334.288,436.356c0.389,0,0.684-0.111,0.882-0.331
					c0.199-0.22,0.298-0.474,0.298-0.761c0-0.14-0.024-0.276-0.072-0.408c-0.048-0.132-0.121-0.248-0.221-0.347
					c-0.099-0.099-0.222-0.178-0.37-0.237c-0.147-0.059-0.32-0.089-0.518-0.089h-1.312v2.173H334.288z"/>
			</g>
		</g>
		<g style="opacity:0.61;">
			<path style="fill:#FFFFFF;" d="M300.133,433.27h9.067v2.242h-9.067V433.27z M300.133,437.136h9.067v2.243h-9.067V437.136z"/>
		</g>
	</g>
	<g style="opacity:0.61;">
		<path style="fill:#FFFFFF;" d="M156.756,478.878h1.607c1.263,0,2.114,0.812,2.114,1.974c0,1.161-0.851,1.973-2.114,1.973h-1.607
			V478.878z M158.34,482.464c1.049,0,1.725-0.665,1.725-1.612c0-0.947-0.677-1.613-1.725-1.613h-1.167v3.225H158.34z"/>
		<path style="fill:#FFFFFF;" d="M165.139,480.851c0-1.15,0.879-2.007,2.075-2.007c1.184,0,2.069,0.851,2.069,2.007
			c0,1.156-0.885,2.007-2.069,2.007C166.019,482.858,165.139,482.002,165.139,480.851z M168.866,480.851
			c0-0.942-0.705-1.635-1.652-1.635c-0.953,0-1.663,0.693-1.663,1.635c0,0.941,0.71,1.635,1.663,1.635
			C168.162,482.486,168.866,481.793,168.866,480.851z"/>
		<path style="fill:#FFFFFF;" d="M179.596,478.878l-1.331,3.947h-0.44l-1.156-3.366l-1.161,3.366h-0.434l-1.331-3.947h0.429
			l1.139,3.394l1.178-3.394h0.389l1.161,3.411l1.156-3.411H179.596z"/>
		<path style="fill:#FFFFFF;" d="M187.731,478.878v3.947h-0.344l-2.537-3.202v3.202h-0.417v-3.947h0.344l2.543,3.203v-3.203H187.731
			z"/>
		<path style="fill:#FFFFFF;" d="M193.093,478.878h0.417v3.586h2.21v0.361h-2.627V478.878z"/>
		<path style="fill:#FFFFFF;" d="M200.061,480.851c0-1.15,0.879-2.007,2.075-2.007c1.184,0,2.069,0.851,2.069,2.007
			c0,1.156-0.885,2.007-2.069,2.007C200.941,482.858,200.061,482.002,200.061,480.851z M203.788,480.851
			c0-0.942-0.705-1.635-1.652-1.635c-0.953,0-1.663,0.693-1.663,1.635c0,0.941,0.71,1.635,1.663,1.635
			C203.083,482.486,203.788,481.793,203.788,480.851z"/>
		<path style="fill:#FFFFFF;" d="M211.636,481.77h-2.199l-0.474,1.054h-0.434l1.804-3.947h0.412l1.804,3.947h-0.44L211.636,481.77z
			 M211.484,481.432l-0.947-2.12l-0.947,2.12H211.484z"/>
		<path style="fill:#FFFFFF;" d="M217.28,478.878h1.607c1.263,0,2.114,0.812,2.114,1.974c0,1.161-0.851,1.973-2.114,1.973h-1.607
			V478.878z M218.864,482.464c1.049,0,1.725-0.665,1.725-1.612c0-0.947-0.677-1.613-1.725-1.613h-1.167v3.225H218.864z"/>
		<path style="fill:#FFFFFF;" d="M234.041,481.77h-2.199l-0.474,1.054h-0.434l1.804-3.947h0.412l1.804,3.947h-0.44L234.041,481.77z
			 M233.889,481.432l-0.947-2.12l-0.947,2.12H233.889z"/>
		<path style="fill:#FFFFFF;" d="M239.685,478.878h0.417v3.586h2.21v0.361h-2.627V478.878z"/>
		<path style="fill:#FFFFFF;" d="M247.082,478.878h0.417v3.586h2.21v0.361h-2.627V478.878z"/>
		<path style="fill:#FFFFFF;" d="M260.449,479.239v1.551h2.041v0.361h-2.041v1.675h-0.417v-3.947h2.706v0.361H260.449z"/>
		<path style="fill:#FFFFFF;" d="M267.678,478.878h0.417v3.947h-0.417V478.878z"/>
		<path style="fill:#FFFFFF;" d="M273.456,478.878h0.417v3.586h2.21v0.361h-2.627V478.878z"/>
		<path style="fill:#FFFFFF;" d="M283.644,482.464v0.361h-2.791v-3.947h2.706v0.361h-2.289v1.404h2.041v0.355h-2.041v1.466H283.644z
			"/>
		<path style="fill:#FFFFFF;" d="M294.672,479.239v1.551h2.041v0.361h-2.041v1.675h-0.417v-3.947h2.706v0.361H294.672z"/>
		<path style="fill:#FFFFFF;" d="M301.5,480.851c0-1.15,0.879-2.007,2.075-2.007c1.184,0,2.069,0.851,2.069,2.007
			c0,1.156-0.885,2.007-2.069,2.007C302.379,482.858,301.5,482.002,301.5,480.851z M305.226,480.851
			c0-0.942-0.705-1.635-1.652-1.635c-0.953,0-1.663,0.693-1.663,1.635c0,0.941,0.71,1.635,1.663,1.635
			C304.522,482.486,305.226,481.793,305.226,480.851z"/>
		<path style="fill:#FFFFFF;" d="M313.351,482.825l-0.902-1.269c-0.102,0.011-0.203,0.017-0.316,0.017h-1.06v1.252h-0.417v-3.947
			h1.477c1.004,0,1.613,0.507,1.613,1.353c0,0.62-0.327,1.054-0.902,1.24l0.964,1.353H313.351z M313.328,480.231
			c0-0.632-0.417-0.992-1.207-0.992h-1.048v1.979h1.048C312.911,481.218,313.328,480.851,313.328,480.231z"/>
		<path style="fill:#FFFFFF;" d="M322.907,478.878v3.947h-0.4v-3.158l-1.551,2.656h-0.197l-1.551-2.639v3.14h-0.4v-3.947h0.344
			l1.714,2.926l1.697-2.926H322.907z"/>
		<path style="fill:#FFFFFF;" d="M330.744,481.77h-2.199l-0.473,1.054h-0.434l1.804-3.947h0.411l1.804,3.947h-0.44L330.744,481.77z
			 M330.592,481.432l-0.947-2.12l-0.947,2.12H330.592z"/>
		<path style="fill:#FFFFFF;" d="M336.957,479.239h-1.387v-0.361h3.192v0.361h-1.387v3.586h-0.417V479.239z"/>
		<path style="fill:#FFFFFF;" d="M343.063,482.346l0.164-0.321c0.282,0.276,0.784,0.479,1.302,0.479c0.739,0,1.06-0.31,1.06-0.699
			c0-1.083-2.43-0.417-2.43-1.877c0-0.581,0.451-1.083,1.455-1.083c0.446,0,0.908,0.13,1.224,0.35l-0.141,0.333
			c-0.338-0.22-0.733-0.327-1.083-0.327c-0.722,0-1.043,0.321-1.043,0.716c0,1.083,2.43,0.429,2.43,1.866
			c0,0.581-0.462,1.077-1.472,1.077C343.937,482.858,343.356,482.65,343.063,482.346z"/>
	</g>
</g>
<g>
</g>
<g>
	<g>
		<path d="M230.832,264.794c-0.439-2.591-1.378-5.142-3.121-7.099c-2.471-2.774-6.183-4.002-9.476-5.725
			c6.641-2.58,10.945-10.134,9.78-17.163c-0.976-5.884-5.684-10.867-11.365-12.519c-3.381-0.983-6.646-0.953-10.149-0.953
			c-4.227,0-8.454,0.001-12.682,0.001c-7.44,0.001-14.88,0.002-22.32,0.003c-0.341,0-0.72,0.015-0.961,0.256
			c-0.241,0.241-0.256,0.62-0.256,0.96c-0.003,21.398-0.006,42.796-0.009,64.194c0,0.245,0.007,0.51,0.159,0.702
			c0.204,0.257,0.579,0.279,0.907,0.28c9.268,0.018,18.536,0.035,27.805,0.053c2.497,0.005,4.997,0.009,7.49-0.137
			c3.493-0.205,6.968-0.706,10.377-1.496c1.558-0.361,3.11-0.786,4.564-1.453c6.983-3.205,10.428-11.757,9.342-19.364
			C230.891,265.156,230.863,264.975,230.832,264.794z M190.9,235.888c-0.006-0.703,0.253-1.042,1.011-1.037
			c3.932,0.022,7.866-0.102,11.789,0.07c1.552,0.068,3.158,0.988,3.755,2.425c0.491,1.181,1.302,2.533,0.827,3.939
			c-0.434,1.29-0.488,2.738-1.584,3.793c-0.937,0.902-2.021,1.367-3.266,1.495c-0.663,0.068-1.325-0.023-1.886,0.493
			c-0.285,0.263-0.729,0.183-1.113,0.183c-2.732,0.003-5.464,0.013-8.196-0.001c-1.26-0.007-1.309-0.055-1.329-1.293
			c-0.026-1.677-0.006-3.356-0.006-5.034h0.001C190.905,239.244,190.915,237.565,190.9,235.888z M208.08,271.756
			c-0.293,0.335-0.892,0.334-1.303,0.432c-1.121,0.268-2.141,0.941-3.303,0.951c-3.775,0.036-7.55,0.016-11.324,0.01
			c-0.619,0-1.342,0.104-1.172-0.918c-0.016-3.677-0.047-7.355-0.039-11.034c0.003-0.991,0.105-1.08,1.077-1.085
			c4.349-0.017,8.698-0.012,13.045-0.006c0.473,0.001,2.001,0.726,2.612,1.198c1.088,0.122,1.557,0.803,2.138,1.721
			c0.853,1.345,0.696,2.681,0.729,4.065C210.59,269.099,209.259,270.401,208.08,271.756z"/>
		<path d="M137.498,263.943c0.279-1.782,0.315-3.652,0.313-5.429c-0.014-11.906-0.027-23.812-0.041-35.717
			c-0.001-0.452,0.028-0.968,0.38-1.252c0.269-0.217,0.644-0.226,0.99-0.225c3.514,0,7.029,0.019,10.543,0.029
			c1.841,0.005,3.682,0.01,5.523,0.015c1.971,0.005,2.683,0.139,2.674,2.32c-0.051,12.773-0.102,25.546-0.153,38.319
			c-0.005,1.229-0.01,2.459-0.109,3.684c-0.454,5.631-2.961,11.075-6.945,15.08c-1.596,1.604-3.417,2.98-5.379,4.107
			c-4.852,2.785-10.532,4-16.124,3.82c-1.163-0.037-2.323-0.133-3.482-0.229c-1.885-0.156-3.771-0.311-5.656-0.467
			c-2.292-0.189-4.593-0.38-6.832-0.907c-7.926-1.865-14.633-8.215-16.93-16.026c-0.419-1.425-0.7-2.887-0.921-4.356
			c-0.834-5.556-0.806-11.201-0.776-16.819c0.049-9.107,0.098-18.214,0.147-27.321c0.002-0.349,0.021-0.74,0.274-0.981
			c0.239-0.228,0.605-0.242,0.936-0.242c5.856-0.005,11.712-0.01,17.568-0.015c0.402,0,0.828,0.006,1.17,0.218
			c0.628,0.389,0.694,1.261,0.691,1.999c-0.052,11.804-0.103,23.608-0.155,35.412c-0.014,3.202,0.018,6.582,1.646,9.339
			c2.721,4.606,9.226,5.819,14.237,3.946c1.256-0.469,2.468-1.106,3.452-2.017C136.303,268.596,137.121,266.351,137.498,263.943z"/>
		<path d="M267.874,287.413c-8.895,0-17.79,0-26.685,0c-0.312,0-0.663-0.016-0.873-0.247c-0.187-0.205-0.197-0.51-0.197-0.788
			c0.005-13.643,0.009-27.286,0.014-40.929c0.003-7.662,0.005-15.324,0.008-22.986c0.001-1.843,2.84-1.121,4.103-1.121
			c2.112,0,4.224,0,6.336-0.001c4.224,0,8.449-0.001,12.673-0.001c8.449-0.001,16.897-0.002,25.346-0.003
			c1.774,0,3.548,0,5.323-0.001c0.326,0,0.685,0.013,0.923,0.235c0.258,0.242,0.275,0.638,0.275,0.991
			c0.001,3.618,0.001,7.237,0.002,10.855c0,0.595-0.024,1.253-0.432,1.686c-0.439,0.465-1.155,0.496-1.795,0.496
			c-10.363,0.002-20.726,0.003-31.09,0.005c-0.35,0-0.744,0.019-0.979,0.278c-0.207,0.229-0.219,0.568-0.219,0.877
			c-0.002,2.668-0.004,5.335-0.007,8.003c0,0.315,0.009,0.657,0.208,0.901c0.257,0.315,0.72,0.34,1.127,0.34
			c9.714-0.001,19.429-0.002,29.143-0.004c0.296,0,0.618,0.008,0.849,0.193c0.307,0.246,0.332,0.695,0.332,1.088
			c-0.002,3.638-0.004,7.276-0.006,10.914c0,0.316-0.016,0.67-0.246,0.886c-0.213,0.201-0.537,0.212-0.83,0.212
			c-9.725-0.002-19.449-0.005-29.174-0.007c-0.457,0-0.993,0.04-1.241,0.425c-0.142,0.22-0.147,0.499-0.147,0.761
			c0,3.661,0,7.323,0,10.984c0,0.279,0.011,0.587,0.201,0.791c0.208,0.224,0.551,0.239,0.857,0.239
			c10.968,0.001,21.936,0.002,32.904,0.003c0.352,0,0.751,0.021,0.979,0.288c0.186,0.219,0.196,0.532,0.196,0.82
			c0,4.262-0.001,8.524-0.001,12.787c0,0.275-0.01,0.577-0.195,0.78c-0.209,0.23-0.558,0.246-0.868,0.246
			C285.75,287.413,276.812,287.413,267.874,287.413z"/>
		<path d="M45.445,239.117c-0.007-0.478-0.076-1.006-0.472-1.254c-0.238-0.149-0.535-0.153-0.815-0.153
			c-6.064,0.005-12.128,0.01-18.192,0.016c-0.266,0-0.56-0.011-0.751-0.195c-0.198-0.192-0.212-0.501-0.212-0.777
			c-0.001-4.769-0.002-9.539-0.003-14.308c0-0.315,0.015-0.666,0.24-0.886c0.218-0.212,0.555-0.225,0.859-0.225
			c16.774,0,33.548,0.008,50.322,0.011c2.107,0,4.215,0.001,6.322,0.001c1.306,0,4.006-0.639,4.538,0.888
			c0.586,1.683,0.052,4.523,0.061,6.314c0.011,2.163,0.019,4.326,0.023,6.489c0.001,0.632-0.011,1.308-0.371,1.827
			c-0.574,0.826-1.746,0.901-2.751,0.894c-5.139-0.032-10.279-0.064-15.418-0.096c-0.584-0.004-1.202,0.001-1.705,0.299
			c-1,0.592-1.073,1.986-1.032,3.148c0.489,13.781,0.328,27.576,0.167,41.365c-0.015,1.249-0.029,2.497-0.044,3.746
			c-0.004,0.309-0.017,0.646-0.218,0.881c-0.249,0.292-0.685,0.314-1.069,0.314c-5.973-0.002-11.946-0.003-17.918-0.005
			c-0.488,0-1.04-0.028-1.361-0.396c-0.269-0.309-0.282-0.758-0.281-1.168c0.027-15.539,0.055-31.077,0.082-46.616
			C45.446,239.195,45.446,239.156,45.445,239.117z"/>
	</g>
	<g>
		<path style="fill:#8B171D;" d="M474.942,299.027c0.039,0.516,0.068,1.065-0.38,1.476c-0.066,0.06-0.132,0.163-0.134,0.247
			c-0.058,2.526-1.065,4.629-2.83,6.399c-0.01,0.798-0.598,1.246-1.054,1.785c-0.643,0.761-1.38,1.538-2.125,2.066
			c-0.755,0.537-1.65,1.011-2.48,1.525c-1.279,0.793-2.748,1.216-4.006,2.054c-0.644,0.43-1.548,0.079-2.138,0.692
			c-1.873-0.158-3.431,1.322-5.356,0.998c-0.682-0.114-1.427-0.135-1.948,0.583c-0.24,0.332-0.709,0.226-1.086,0.227
			c-4.836,0.003-9.673,0.001-14.508-0.003c-0.378-0.001-0.842,0.092-1.082-0.245c-0.482-0.673-1.154-0.584-1.817-0.581
			c-1.197,0.006-2.394,0.023-3.591,0.035c-0.544,0.322-1.095,0.177-1.653,0.039c-1.149-0.285-2.302-0.551-3.487-0.65
			c-0.056-0.004-0.111-0.01-0.167-0.016c-0.214-0.022-0.427-0.047-0.639-0.076c-2.122-0.289-4.196-0.912-6.361-0.869
			c-0.024,0-0.05,0-0.076,0.001c-0.024-0.01-0.05-0.022-0.075-0.033c-0.501-0.214-1.006-0.407-1.558-0.485
			c-6.157-0.879-12.261-2.12-18.431-2.883c-7.797-0.964-15.653-1.296-23.493-0.814c-3.92,0.24-7.764,1.223-11.06,3.628
			c-1.411,1.03-2.205,2.489-2.881,4.035c-0.322,0.739-0.042,1.193,0.711,1.395c1.246,0.338,2.48,0.742,3.783,0.211
			c0.348-0.141,0.737-0.207,1.112-0.285c0.555-0.114,1.219-0.348,1.523,0.331c0.249,0.555-0.18,1.02-0.608,1.336
			c-1.026,0.758-1.731,1.778-2.421,2.815c-0.016,0.013-0.033,0.026-0.049,0.039c-0.043,0.032-0.085,0.065-0.127,0.098
			c-1.433,1.113-2.735,2.336-3.348,4.116c-0.016,0.042-0.03,0.083-0.043,0.127c-0.004,0.013-0.009,0.026-0.013,0.039
			c-1.2,0.65-1.496,2.162-2.687,2.821v0.001h-0.001c-0.739,0.348-0.409,1.203-0.839,1.741c-0.77,0.962-0.977,2.277-1.873,3.191
			c-0.106,0.108-0.07,0.365-0.085,0.554c-0.013,0.191,0.07,0.437-0.022,0.565c-0.832,1.165-0.842,2.676-1.557,3.86
			c-0.526-0.04-0.429-0.393-0.433-0.647c-0.012-0.86,0.003-1.721,0.012-2.582c0.007-0.623-0.06-1.191-0.393-1.777
			c-0.483-0.85-0.157-1.873-0.352-2.802c-0.037-0.175,0.132-0.47,0.052-0.549c-0.885-0.86-0.455-1.956-0.575-2.951
			c-0.037-0.311-0.268-0.495-0.509-0.66c-0.357-0.263-0.647-0.593-0.672-1.044c-0.07-1.267-0.598-2.369-1.174-3.46
			c0.007-0.023,0.013-0.046,0.019-0.069c0.02-0.078,0.037-0.155,0.052-0.233c0.278-1.466-0.465-2.801-0.656-4.206
			c0.024-0.367-0.122-0.672-0.289-0.97c-0.099-0.176-0.207-0.35-0.289-0.531c-0.023-0.047-0.043-0.096-0.062-0.145
			c-0.027-0.073-0.049-0.15-0.065-0.227c-0.007-0.037-0.013-0.075-0.017-0.112c-0.095-0.665-0.468-1.26-0.486-1.943
			c-0.014-0.524-0.132-1.119,0.465-1.39c0.542-0.246,0.878,0.217,1.214,0.544c0.342,0.334,0.636,0.716,0.955,1.075
			c0.501,0.56,1.149,0.826,1.862,1.006c0.926,0.234,1.489-0.108,1.726-1.006c1.633-6.193,6.079-9.168,11.946-10.696
			c6.298-1.639,12.701-1.768,19.111-1.447c3.384,0.17,6.774,0.55,10.148,0.905c3.798,0.401,7.626,0.584,11.393,1.168
			c3.644,0.562,7.347,0.537,10.96,1.341c2,0.445,4.109,0.161,6.097,0.804c0.764,0.247,1.495-0.282,2.263-0.204
			c0.058,0.027,0.114,0.053,0.171,0.078c0.131,0.062,0.263,0.119,0.396,0.173c1.928,0.787,3.94,0.944,6.016,0.598
			c0.04,0.013,0.082,0.026,0.122,0.037c0.108,0.035,0.216,0.063,0.324,0.091c1.377,0.347,2.811,0.293,4.202,0.542
			c0.029,0.004,0.056,0.009,0.085,0.014c0.052,0.029,0.104,0.053,0.157,0.073c0.547,0.217,1.121,0.043,1.679,0.047
			c3.253,0.02,6.509,0.112,9.756-0.023c2.656-0.111,5.35-0.295,7.896-1.102c3.389-1.076,5.99-3.192,7.86-6.292
			c2.08-3.448,2.309-7.035,1.147-10.749c-0.528-1.686-1.627-3.112-3.114-4.11c-1.197-0.803-2.043-1.972-3.284-2.755
			c-1.385-0.87-2.84-1.554-4.296-2.259c-0.078-0.079-0.155-0.157-0.236-0.233c-0.062-0.059-0.127-0.118-0.19-0.174
			c-0.876-0.784-1.887-1.352-3.004-1.748c-0.042-0.016-0.083-0.03-0.127-0.045c-0.043-0.029-0.086-0.058-0.131-0.086
			c-1.234-0.807-2.545-1.476-3.861-2.139c-0.065-0.03-0.128-0.063-0.191-0.095c-0.111-0.055-0.22-0.111-0.329-0.165
			c-1.407-1.578-1.863-3.422-1.477-5.475c0.152-0.813,0.486-1.591,1.116-2.135c1.128-0.975,2.421-1.748,3.458-2.837
			c0.009,0.004,0.017,0.009,0.027,0.014c0.056,0.029,0.122,0.066,0.157,0.105c0.016,0.017,0.024,0.036,0.022,0.053
			c-0.355,2.191,1.592,2.436,2.792,3.307c0.105,0.167,0.236,0.265,0.38,0.324c0.163,0.069,0.344,0.088,0.525,0.105
			c0.098,0.007,0.197,0.014,0.293,0.027c0.056,0.009,0.112,0.019,0.167,0.032c0.05,0.012,0.099,0.027,0.147,0.046
			c0.793,0.767,2.131,0.711,2.715,1.794c0.562,1.037,1.614,1.473,2.587,1.895c1.771,0.767,3.241,1.903,4.609,3.217
			c0.571,0.55,1.253,0.971,1.874,1.434c1.298,0.967,2.722,1.928,3.382,3.558c0.138,0.345,0.364,0.696,0.643,0.935
			c1.076,0.922,1.729,2.109,2.225,3.398c0.19,0.492,0.662,0.773,0.804,1.331c0.232,0.909,0.732,1.754,0.562,2.746
			C475.469,294.17,474.767,296.636,474.942,299.027z"/>
		<path d="M350.152,324.702c0.01,0.01,0.02,0.02,0.03,0.03c1.202,1.208,1.958,3.028,1.413,4.644
			c-22.977-8.669-41.517-28.339-48.812-51.789c-3.544-11.392-4.395-23.57-2.729-35.372c1.675-11.86,5.896-23.382,12.487-33.397
			c1.811-2.751,3.477-5.233,6.13-7.311c2.585-2.025,5.591-3.52,8.779-4.315c-4.359,4.99-8.601,10.113-12.13,15.721
			c-11.329,18.002-14.65,40.847-8.916,61.33s20.435,38.283,39.464,47.786C347.383,322.783,348.953,323.511,350.152,324.702z"/>
		<path style="fill:#8B171D;" d="M327.201,197.344c-0.088-0.009-0.176-0.017-0.263-0.018c-0.918-0.014-1.659,0.7-2.345,1.31
			c-1.526,1.359-3.395,2.453-5.434,2.586c-0.214,0.014-0.442,0.014-0.624-0.099c-0.161-0.099-0.26-0.27-0.355-0.434
			c-1.48-2.564-3.263-4.969-4.426-7.692c-0.85-1.988-1.351-4.104-1.849-6.208c-2.329-9.85,2.726-20.025,8.147-27.959
			c0.436,0.22,0.494,0.836,0.334,1.299c-1.223,3.535-1.825,8.061-1.344,11.78c0.458,3.542,2.128,6.247,4.631,8.691
			c2.741,2.676,6.605,4.058,9.882,5.958c0.315,0.183,0.648,0.396,0.776,0.737c0.106,0.282,0.048,0.598-0.033,0.888
			c-0.806,2.881-3.635,4.722-4.995,7.387c-0.389,0.761-0.815,1.711-1.665,1.791C327.491,197.374,327.346,197.358,327.201,197.344z"
			/>
		<path style="fill:#8B171D;" d="M425.249,186.594c0.342-0.137,0.763-0.188,1.185-0.331c7.688-2.598,14.21-8.548,13.989-17.223
			c-0.035-1.356-0.241-2.7-0.509-4.027c-0.215-1.063-0.696-2.223-0.652-3.316c0.038-0.94,0.053-2.006-0.605-2.759
			c0.972,0.429,1.572,1.399,2.106,2.318c3.314,5.706,6.438,11.784,6.881,18.367c0.106,1.572,0.056,3.15,0.006,4.725
			c-0.038,1.19-0.077,2.39-0.367,3.545c-0.189,0.751-0.481,1.471-0.772,2.189c-0.621,1.532-1.243,3.063-1.864,4.595
			c-0.401,0.989-0.809,1.99-1.437,2.853c-0.693,0.953-1.671,1.779-1.907,2.934c-0.047,0.229-0.064,0.469-0.171,0.676
			c-0.31,0.598-1.156,0.614-1.815,0.474c-3.766-0.803-6.593-3.798-9.575-6.235c-0.576-0.471-1.172-0.932-1.62-1.525
			c-0.422-0.558-0.695-1.213-1.066-1.806c-0.516-0.825-1.214-1.523-1.752-2.334c-0.39-0.588-0.949-1.618-0.745-2.361
			C424.676,186.926,424.927,186.723,425.249,186.594z"/>
		<path d="M425.099,186.53c-1.117,2.518,3.36,4.592,2.939,7.314c-13.978-11.21-31.898-17.464-49.813-17.148
			c-17.915,0.316-35.678,7.248-48.914,19.324c-0.166,0.151-0.429-0.893-0.406-1.014c0.099-0.514,0.529-0.665,0.903-0.984
			c0.753-0.644,1.346-1.439,1.875-2.271c1.089-1.712,1.879-3.625,3.23-5.162c1.123-1.277,2.58-2.209,4.044-3.076
			c3.367-1.993,6.883-3.735,10.51-5.206c2.179-0.884,4.397-1.669,6.645-2.357c19.887-6.083,42.118-4.092,60.608,5.429
			C419.637,182.881,422.469,184.565,425.099,186.53z"/>
		<path d="M435.886,200.254c0.313-0.345,0.914-0.031,1.315,0.114c0.924,0.335,1.805,0.644,2.791,0.755
			c0.577,0.065,1.177,0.082,1.701,0.335c0.654,0.316,1.085,0.95,1.495,1.551c1.274,1.87,2.634,3.68,3.902,5.555
			c2.047,3.027,3.85,6.218,5.431,9.512c7.971,16.612,10.1,35.959,5.93,53.906c-0.072,0.311-0.156,0.639-0.385,0.86
			c-0.1,0.097-0.223,0.168-0.352,0.222c-1.174,0.495-2.538-0.507-2.926-1.72s-0.093-2.525,0.168-3.772
			c2.522-12.047,1.643-24.727-2.063-36.465c-1.908-6.043-4.558-11.844-7.804-17.284c-1.625-2.723-3.4-5.357-5.308-7.89
			c-0.954-1.267-1.942-2.508-2.961-3.724c-0.306-0.365-1.215-1.078-1.099-1.601C435.757,200.449,435.814,200.334,435.886,200.254z"
			/>
		<path d="M425.555,315.592c1.709-0.348,3.559-0.15,4.906,0.924c-4.453,3.735-9.349,6.941-14.547,9.54
			c-2.628,1.314-5.333,2.473-8.097,3.468c-3.134,1.127-6.193,2.871-9.556,3.191c-2.971,0.283-5.907,0.845-8.878,1.129
			c-3.048,0.291-6.113,0.319-9.172,0.346c-2.565,0.022-5.133,0.045-7.691-0.136c-4.454-0.314-8.84-1.237-13.21-2.158
			c-0.219-0.046-0.449-0.098-0.615-0.247c-0.396-0.357-0.203-1.024,0.124-1.445c0.933-1.203,1.06-1.827,2.732-1.998
			c1.516-0.155,3.045,0.169,4.528,0.444c10.765,1.999,21.959,1.652,32.58-1.008c7.316-1.833,14.377-4.764,20.699-8.877
			c1.7-1.106,3.377-2.311,5.306-2.937C424.954,315.732,425.252,315.653,425.555,315.592z"/>
		<path d="M426.19,308.532c-1.137,0.88-2.371,0.599-3.578,0.241c-0.312-0.093-0.603-0.28-0.944-0.263
			c-2.015,0.098-3.99-0.197-5.933-0.679c-1.235-0.307-2.478-0.105-3.713-0.222c-1.738-0.164-3.422-0.681-5.171-0.761
			c-0.143-0.007-0.285-0.061-0.426-0.056c-2.999,0.106-5.913-0.944-8.925-0.663c-2.925-0.822-5.99-0.323-8.923-0.884
			c-4.475-0.856-8.969-0.362-13.451-0.433c-1.648-0.026-3.3,0.457-4.957,0.646c-2.039,0.233-3.977,0.895-5.961,1.356
			c-1.056,0.246-2.073,0.763-2.938,1.423c-1.312,1.001-2.794,1.793-3.848,3.128c-1.133,1.435-1.997,2.994-2.45,4.769
			c-0.07,0.275-0.046,0.578-0.138,0.844c-0.447,1.294-0.568,1.25-1.961,1.082c-1.662-0.2-2.607-1.273-3.524-2.456
			c-0.169-0.218-0.235-0.533-0.698-0.607c-0.067,0.792-0.092,1.555,0.323,2.266c0.215,0.368,0.273,0.708,0.012,1.067
			c-0.5,0.402-0.951,0.163-1.412-0.095c-0.568-0.317-1.134-0.646-1.798-0.731c-4.123-2.025-7.86-4.638-11.418-7.523
			c-0.403-0.525-0.85-0.999-1.49-1.244c-4.333-3.825-8.417-7.877-11.59-12.757c-1.312-2.198-2.682-4.358-4.132-6.469
			c-0.088-0.106-0.16-0.221-0.222-0.343c-0.252-0.813-0.715-1.5-1.278-2.129c-3.48-6.401-5.741-13.197-7.048-20.373
			c-0.776-4.261-1.118-8.55-1.191-12.83c-0.071-4.137,0.343-8.293,0.957-12.419c0.838-5.631,2.658-10.959,4.608-16.261
			c0.165-0.45,0.412-0.863,0.691-1.253c1.066-1.124,1.565-2.542,2.041-3.972c1.847-4.09,4.392-7.742,7.106-11.286
			c5.824-7.605,13.021-13.669,21.293-18.396c7.324-4.185,15.128-7.122,23.55-8.42c4.667-0.72,9.322-1.109,14.018-1.005
			c7.961,0.177,15.678,1.633,23.177,4.396c9.223,3.398,17.341,8.502,24.527,15.166c3.851,3.571,7.242,7.523,10.142,11.897
			c0.53,1.125,1.05,2.259,1.871,3.217c0.09,0.103,0.166,0.215,0.233,0.333c0.23,0.601,0.644,1.066,1.103,1.502
			c2.179,3.573,3.911,7.367,5.274,11.304c1.031,2.979,1.961,6,2.69,9.082c0.886,3.744,1.137,7.552,1.523,11.357
			c0.469,4.612-0.172,9.171-0.349,13.752c-0.05,1.297-0.493,2.535-0.637,3.823c-0.054,0.48-0.25,0.934-0.807,1.076
			c-0.664,1.169-0.664,1.169-2.225,2.193c-1.569,1.029-2.295,2.903-1.962,4.75c0.218,1.209,0.858,2.186,1.458,3.201
			c0.412,0.589,0.025,1.117-0.173,1.623c-1.642,4.202-3.603,8.245-5.957,12.103c-3.546,5.811-7.909,10.938-12.865,15.576
			C427.997,307.826,427.413,308.8,426.19,308.532z"/>
		<path style="fill:#FEFEFE;" d="M334.505,309.651c1.328,0.97,2.645,1.956,3.987,2.906c2.336,1.653,4.768,3.155,7.266,4.551
			c1.054,0.376,1.962,1.042,2.974,1.504c0.587,0.269,0.843,0.829,1.082,1.387c0.258,1.209,0.526,2.416,0.768,3.628
			c0.084,0.42,0.156,0.874-0.413,1.056c-2.576-1.314-5.15-2.633-7.73-3.94c-1.321-0.669-2.512-1.548-3.775-2.3
			c-2.433-1.448-4.67-3.151-6.857-4.921c-2.701-2.186-5.262-4.518-7.652-7.064c-2.421-2.578-4.71-5.262-6.735-8.134
			c-1.607-2.28-3.288-4.548-4.456-7.118c-0.612-1.035-1.116-2.13-1.72-3.17l0,0c-0.611-1.229-1.404-2.374-1.734-3.734
			c-1.204-2.9-2.306-5.839-3.348-8.799c-0.19-0.539-0.31-1.108-0.404-1.673c-0.336-2.027-0.87-4.014-1.298-6.02
			c-0.432-2.02-0.509-4.076-0.939-6.086c-0.301-1.409-0.328-2.852-0.344-4.288c-0.041-3.688-0.217-7.383,0.206-11.056
			c0.356-3.083,0.696-6.182,1.441-9.196c0.651-2.635,1.069-5.342,2.07-7.879c1.064-2.697,2.008-5.44,3.231-8.076
			c1.162-2.504,2.428-4.955,3.855-7.311c1.827-3.017,3.831-5.916,6.012-8.703c1.705-2.178,3.796-4,5.424-6.232
			c0.169-0.227,0.362-0.429,0.595-0.591c0.393-0.341,0.786-0.681,1.181-1.022c0.828-0.286,1.205-1.04,1.719-1.65
			c0.488-0.434,0.976-0.869,1.465-1.303c0.144-0.078,0.257-0.187,0.334-0.332c0.473-0.115,0.836-0.405,1.196-0.715
			c1.567-1.345,3.231-2.563,4.937-3.726c4.231-2.82,8.589-5.402,13.373-7.193c0.357-0.134,0.665-0.371,1.019-0.519
			c2.092-0.495,4.025-1.444,6.069-2.082c3.921-1.225,7.933-1.963,11.98-2.588c3.297-0.509,6.609-0.822,9.94-0.826
			c6.255-0.006,12.435,0.614,18.508,2.222c1.359,0.36,2.756,0.642,4.148,0.904c3.771,1.261,7.465,2.724,11.106,4.318
			c0.732,0.321,1.401,0.785,2.1,1.183c1.24,0.686,2.562,1.217,3.748,2.003l0.001,0.001c0.915,0.499,1.824,1.006,2.611,1.701
			c1.368,0.953,2.951,1.598,4.094,2.873c0.227,0.253,0.519,0.394,0.852,0.452c0.109,0.137,0.233,0.258,0.378,0.356
			c0.109,0.285,0.339,0.389,0.621,0.419c0.156,0.17,0.333,0.313,0.551,0.396c0.086,0.056,0.172,0.112,0.258,0.169
			c0.112,0.552,0.836,0.552,0.974,1.079c2.707,2.388,5.413,4.778,7.808,7.492l0,0c0.577,0.67,1.154,1.339,1.739,2.001
			c1.921,2.464,3.944,4.84,5.518,7.572c0.898,1.558,2.012,3.005,2.832,4.614c0.99,1.943,1.958,3.899,2.923,5.855
			c1.035,2.097,1.681,4.327,2.522,6.487c0.686,1.762,1.15,3.611,1.712,5.421c0.359,1.42,0.586,2.866,0.885,4.298l0,0
			c1.056,5.782,1.618,11.604,1.419,17.488c-0.105,3.097-0.33,6.173-0.875,9.241c-0.314,1.772-0.6,3.564-0.851,5.354
			c-0.118,0.844-0.385,1.564-1.486,1.025c-0.723-0.355-1.445-0.713-2.17-1.065c-1.055-0.512-1.098-0.608-0.768-1.758
			c0.077-0.268,0.249-0.532,0.037-0.812c0.655-2.746,0.895-5.543,1.149-8.352c0.473-5.229,0.15-10.436-0.332-15.623
			c-0.177-1.91-0.561-3.852-1.07-5.753c-0.53-1.98-1.063-3.961-1.611-5.938c-0.972-3.508-2.343-6.857-3.946-10.118
			c-0.778-1.582-1.463-3.212-2.46-4.678c-0.304-0.467-0.465-1.024-0.884-1.419l-0.001-0.002c-0.842-0.954-1.105-2.263-1.966-3.205
			c-1.501-1.976-2.917-4.018-4.56-5.883c-1.698-1.928-3.473-3.775-5.3-5.588c-2.525-2.506-5.287-4.703-8.15-6.756
			c-2.417-1.734-4.883-3.455-7.615-4.7c-1.812-0.826-3.536-1.823-5.35-2.65c-1.352-0.616-2.782-0.981-4.145-1.558
			c-1.831-0.775-3.802-1.217-5.705-1.828c-2.566-0.824-5.236-1.1-7.877-1.534c-5.413-0.89-10.847-0.985-16.314-0.61
			c-3.976,0.273-7.88,0.964-11.759,1.794c-2.044,0.437-4.024,1.164-6.001,1.875c-1.878,0.676-3.803,1.245-5.599,2.109
			c-2.852,1.372-5.723,2.718-8.411,4.407c-3.508,2.205-6.883,4.597-9.973,7.361c-1.739,1.556-3.448,3.144-5.051,4.857
			c-3.963,4.236-7.303,8.912-10.244,13.89c-0.434,0.734-0.767,1.527-1.147,2.293c-0.784,1.193-1.24,2.556-1.96,3.782
			c-1.386,3.249-2.552,6.577-3.57,9.956c-0.718,2.381-1.138,4.826-1.575,7.274c-0.498,2.789-0.678,5.598-0.914,8.407
			c-0.196,2.336-0.256,4.685-0.039,7.017c0.231,2.476,0.174,4.974,0.656,7.432c0.405,2.061,0.562,4.18,1.085,6.206
			c0.547,2.117,1.049,4.262,1.927,6.289c0.434,1.002,0.731,2.065,1.073,3.106c0.865,2.64,2.184,5.076,3.387,7.564
			c0.51,0.604,0.661,1.404,1.114,2.04l0,0c1.346,2.266,2.731,4.507,4.314,6.619c1.758,2.337,3.447,4.725,5.599,6.742
			c0.791,0.742,1.391,1.677,2.203,2.419c1.254,1.146,2.476,2.326,3.712,3.491C333.61,308.817,334.037,309.258,334.505,309.651z"/>
		<path d="M364.398,323.905c-0.148-0.354-0.057-0.707,0.192-0.929c0.809-0.72,1.185-1.874,2.328-2.266
			c0.335-0.115,0.439-0.481,0.44-1.001c-1.115,0.277-2.2,0.531-3.274,0.825c-0.221,0.06-0.463,0.32-0.658,0.208
			c-1.009-0.575-2.213-0.489-3.237-0.995c-0.446-0.22-0.746-0.61-0.486-1.032c0.381-0.618,0.497-1.322,0.838-1.96
			c1.414-2.636,3.688-4.1,6.398-5.084c3.485-1.266,7.057-1.828,10.773-1.819c4.143,0.01,8.285,0.044,12.426,0.151
			c0.81,0.021,1.616,0.016,2.353,0.424c0.17,0.094,0.342,0.147,0.546,0.105c1.573-0.325,3.161,0.071,4.693,0.196
			c1.613,0.132,3.289,0.365,4.905,0.718c2.699,0.589,5.462,0.788,8.159,1.355c2.142,0.45,4.288,0.806,6.469,0.939
			c0.478,0.029,0.646,0.341,0.826,0.683c0.117,0.843-0.522,1.206-1.075,1.536c-3.788,2.265-7.739,4.194-11.898,5.691
			c-3.969,1.429-7.982,2.767-12.146,3.413c-7.342,1.139-14.72,1.904-22.129,0.464c-1.031-0.2-2.116-0.007-3.118-0.419
			c-0.399-0.14-0.77-0.376-1.218-0.352c-0.345,0.008-0.684-0.034-1.019-0.111c-0.328-0.082-0.634-0.218-0.921-0.396
			C364.462,324.159,364.409,324.042,364.398,323.905z"/>
		<path style="fill:#8B171D;" d="M466.607,291.962c-0.062-0.117-0.056-0.283-0.042-0.423c0.055-0.58-0.253-0.965-0.598-1.391
			c-0.498-0.614-1.382-0.983-1.414-1.906c-0.045-1.241-1.483-0.469-1.792-1.293c-0.016-0.04-0.062-0.073-0.099-0.102
			c-1.039-0.852-1.66-2.234-3.192-2.47c-0.178-0.029-0.318-0.338-0.469-0.521c-0.25-0.305-0.564-0.521-0.938-0.633
			c-0.898-0.266-1.7-0.796-2.64-0.939c-0.181-0.049-0.328-0.05-0.446-0.019c-0.378,0.096-0.479,0.531-0.58,0.892
			c-0.506,1.85-1.405,3.546-2.073,5.333c-0.495,1.328-1.063,2.68-1.876,3.85c-2.202,3.175-3.992,6.596-6.01,9.88
			c-0.768,1.25-1.088,1.647-2.656,2.536c-0.21,0.119-0.407,0.275-0.528,0.478c-0.813,1.377-2.044,2.391-3.067,3.585
			c-0.263,0.308-0.62,0.587-0.67,1.008c-0.014,0.104-0.007,0.217,0.023,0.341c0.296,0.434,0.751,0.345,1.172,0.345
			c4.021,0.001,8.042,0.003,12.061-0.006c0.331,0,0.748,0.043,0.974-0.131c0.768-0.587,1.633-0.434,2.482-0.469
			c0.619-0.024,1.293,0.168,1.844-0.121c1.043-0.545,2.3-0.519,3.25-1.29c0.796-0.647,1.841-0.862,2.633-1.554
			c1.923-1.682,3.402-3.701,4.422-6.01c0.295-0.669,0.836-1.326,0.794-2.103C467.049,296.535,467.773,294.17,466.607,291.962z
			 M464.95,302.544c-1.87,3.1-4.471,5.216-7.86,6.292c-2.546,0.807-5.241,0.991-7.896,1.102c-3.247,0.135-6.504,0.043-9.756,0.023
			c-0.558-0.004-1.132,0.17-1.679-0.047c1.276-1.441,2.876-2.6,3.788-4.366c0.161-0.312,0.434-0.639,0.856-0.711
			c0.374-0.063,0.443,0.479,0.857,0.419c0.02-0.529,0.191-0.939,0.6-1.358c1.266-1.296,1.752-3.109,2.953-4.517
			c0.901-1.057,1.19-2.62,2.129-3.783c0.752-0.934,1.065-2.182,1.991-3.022c0.137-0.124,0.278-0.292,0.321-0.465
			c0.391-1.555,1.427-2.814,1.965-4.297c0.16-0.44,0.045-1.021,0.288-1.38c0.765-1.121,1.263-2.312,1.423-3.657
			c0.017-0.144,0.117-0.25,0.237-0.338c0.081,0.076,0.158,0.154,0.236,0.233c1.456,0.705,2.91,1.388,4.296,2.259
			c1.241,0.783,2.087,1.952,3.284,2.755c1.487,0.998,2.587,2.424,3.114,4.11C467.259,295.509,467.03,299.096,464.95,302.544z"/>
		<path style="fill:#FDFDFD;" d="M365.156,324.171c0.467,0.25,0.972,0.216,1.475,0.199c0.261,0.131,0.549,0.033,0.818,0.095
			c0.218,0.215,0.501,0.278,0.786,0.314c5.942,0.761,11.898,1.247,17.882,0.614c2.893-0.306,5.809-0.584,8.644-1.196
			c2.354-0.508,4.721-1.083,6.991-1.96c1.279-0.494,2.608-0.854,3.899-1.318c2.24-0.804,4.355-1.89,6.5-2.911
			c1.722-0.819,3.364-1.773,5.005-2.735c0.373-0.219,0.767-0.405,0.933-0.85c0.496-0.207,1.02-0.284,1.539-0.193
			c1.959,0.346,3.913,0.72,5.87,1.084c-2.114,1.867-4.588,3.201-6.954,4.697c-1.881,1.189-3.877,2.168-5.873,3.121
			c-1.443,0.69-2.893,1.385-4.45,1.888c-1.65,0.533-3.268,1.252-4.921,1.825c-1.709,0.592-3.44,1.158-5.203,1.549
			c-2.558,0.567-5.137,1.112-7.736,1.409c-5.229,0.597-10.469,0.977-15.75,0.521c-3.098-0.267-6.166-0.694-9.23-1.177
			c-1.22-0.192-2.379-0.754-3.657-0.617c-0.18-0.078-0.386-0.051-0.562-0.146c-0.095-0.036-0.19-0.071-0.285-0.108
			c-0.018-0.276-0.158-0.639-0.033-0.814c0.729-1.025,1.316-2.174,2.294-2.994c0.339-0.285,0.836-0.381,1.261-0.564
			c0.088,0.048,0.176,0.097,0.264,0.146C364.807,324.174,364.988,324.147,365.156,324.171z"/>
		<path style="fill:#FDFCFC;" d="M426.19,308.532c1.423-0.744,2.449-1.971,3.578-3.05c3.132-2.994,5.941-6.273,8.489-9.788
			c1.932-2.665,3.675-5.448,5.175-8.356c1.346-2.61,2.741-5.223,3.659-8.034c0.163-0.5,0.629-0.861,0.596-1.432
			c0.23,0.009,0.526-0.07,0.677,0.044c1.131,0.851,2.542,1.248,3.585,2.233c0.17,1.569-0.617,2.881-1.205,4.221
			c-3.863,8.804-9.132,16.669-15.872,23.535c-0.587,0.598-1.062,1.392-2.028,1.492c-0.771,0.742-1.72,0.391-2.584,0.358
			c-1.038-0.039-2.067-0.268-3.104-0.387C426.625,309.307,426.244,309.123,426.19,308.532z"/>
		<path d="M455.422,282.283c-0.083,0.049-0.176,0.098-0.256,0.155c-0.121,0.088-0.22,0.194-0.237,0.338
			c-0.16,1.345-0.657,2.536-1.423,3.657c-0.243,0.358-0.128,0.939-0.288,1.38c-0.538,1.483-1.574,2.742-1.965,4.297
			c-0.043,0.173-0.184,0.341-0.321,0.465c-0.926,0.84-1.239,2.089-1.991,3.022c-0.939,1.164-1.229,2.726-2.129,3.783
			c-1.201,1.408-1.687,3.221-2.953,4.517c-0.409,0.419-0.58,0.829-0.6,1.358c-0.414,0.06-0.483-0.482-0.857-0.419
			c-0.422,0.072-0.695,0.398-0.856,0.711c-0.912,1.767-2.512,2.925-3.788,4.366c-0.075,0.083-0.147,0.168-0.219,0.253
			c-1.37,0.145-2.7-0.262-4.06-0.276c-0.322-0.004-0.493-0.237-0.634-0.493c0.047-0.069,0.096-0.137,0.145-0.204
			c0.742-1.003,1.725-1.784,2.572-2.689c1.951-2.08,3.795-4.245,5.524-6.509c2.341-3.067,4.438-6.299,6.249-9.699
			c1.401-2.631,2.618-5.36,3.873-8.066c0.265-0.573,0.102-1.309,0.506-1.844c0.063-0.083,0.14-0.163,0.234-0.234
			C453.378,280.42,454.601,281.024,455.422,282.283z"/>
		<path style="fill:#9D9B9B;" d="M453.319,271.362c0.782,0.097,1.091-0.327,1.25-1.033c0.485-2.151,0.673-4.348,1.046-6.514
			c0.936-5.424,0.61-10.879,0.562-16.329c-0.015-1.686-0.674-3.288-0.669-4.968c0.004-1.439-0.655-2.807-0.397-4.263
			c0.275,0.175,0.315,0.458,0.35,0.747c0.339,2.842,1.058,5.625,1.101,8.518c0.037,2.483,0.409,4.964,0.236,7.453
			c-0.238,3.431-0.246,6.873-0.939,10.278c-0.437,2.144-0.652,4.341-1.115,6.491C454.23,271.761,453.587,272.265,453.319,271.362z"
			/>
		<path style="fill:#989596;" d="M349.813,320c-0.68-1.029-1.749-1.526-2.804-2.038c-0.461-0.224-0.945-0.406-1.252-0.853
			c0.766-0.094,1.343,0.373,1.932,0.719c0.417,0.245,0.819,0.441,1.293,0.502C349.317,318.859,349.979,319.224,349.813,320z"/>
		<path style="fill:#918F8F;" d="M311.244,288.037c0.977,0.837,1.389,1.982,1.72,3.17
			C312.054,290.333,311.47,289.283,311.244,288.037z"/>
		<path style="fill:#918F8F;" d="M309.51,284.303c0.742,1.168,1.422,2.366,1.734,3.734
			C310.314,286.956,309.527,285.808,309.51,284.303z"/>
		<path style="fill:#8B171D;" d="M326.01,198.392c-0.089,0.309-0.271,0.525-0.596,0.592
			C325.418,198.589,325.573,198.348,326.01,198.392z"/>
		<path style="fill:#969191;" d="M436.979,202.005c-0.416,0.037-0.533-0.325-0.754-0.557c-2.021-2.125-4.2-4.085-6.368-6.056
			c-0.284-0.258-0.538-0.522-0.686-0.878c1.263,0.355,1.957,1.447,2.854,2.26c0.879,0.796,1.76,1.585,2.684,2.326
			c0.608,0.699,1.216,1.399,1.824,2.099C436.738,201.435,437.061,201.608,436.979,202.005z"/>
		<path style="fill:#9B9999;" d="M401.877,179.562c-0.424,0.189-0.872,0.111-1.27-0.008c-2.372-0.711-4.823-1.061-7.226-1.626
			c-0.795-0.187-1.578-0.378-2.4-0.378c-1.493-0.001-2.912-0.552-4.398-0.613c-5.446-0.224-10.869-0.377-16.314,0.412
			c-3.266,0.473-6.469,1.218-9.712,1.774c-1.077,0.185-2.231,0.404-3.245,1.026c-0.796,0.488-1.793,0.532-2.686,0.867
			c-1.186,0.445-2.331,1.114-3.637,1.236c-0.16-0.105-0.175-0.227-0.045-0.367l0.001-0.002c0.229-0.269,0.618-0.033,0.857-0.273
			c2.109-0.9,4.247-1.723,6.467-2.313c5.454-1.45,10.964-2.507,16.615-2.916c4.658-0.338,9.286-0.113,13.897,0.353
			c3.169,0.321,6.346,0.811,9.408,1.818c0.902,0.297,1.875,0.37,2.806,0.59C401.304,179.215,401.673,179.239,401.877,179.562z"/>
		<path style="fill:#838181;" d="M350.946,181.884c0.015,0.122,0.03,0.245,0.045,0.367c-3.874,1.57-7.545,3.542-11.134,5.669
			c-0.771,0.457-1.485,1.013-2.221,1.527c-0.242,0.169-0.489,0.292-0.794,0.196c0.842-1.063,2.028-1.696,3.159-2.343
			c2.591-1.482,5.231-2.88,7.887-4.242C348.854,182.564,349.924,182.27,350.946,181.884z"/>
		<path style="fill:#8B8889;" d="M418.831,187.067c-1.335-0.508-2.672-1.012-3.748-2.003c1.448,0.13,2.488,1.135,3.713,1.742
			C418.839,186.827,418.82,186.977,418.831,187.067z"/>
		<path style="fill:#8B8889;" d="M421.443,188.769c-0.98-0.399-1.9-0.89-2.611-1.701
			C419.954,187.248,420.864,187.754,421.443,188.769z"/>
		<path style="fill:#8B171D;" d="M427.938,193.265c-0.363,0.116-0.536-0.035-0.553-0.397
			C427.673,192.858,427.869,192.974,427.938,193.265z"/>
		<path style="fill:#8B171D;" d="M330.709,194.084c0.057,0.282-0.03,0.42-0.336,0.333
			C330.372,194.19,330.495,194.091,330.709,194.084z"/>
		<path style="fill:#8B171D;" d="M426.766,192.45c-0.288,0.051-0.448-0.033-0.379-0.358
			C426.633,192.087,426.747,192.218,426.766,192.45z"/>
		<path style="fill:#838181;" d="M351.804,181.609c-0.228,0.271-0.539,0.284-0.857,0.273
			C351.152,181.539,351.49,181.612,351.804,181.609z"/>
		<path style="fill:#9D9B9B;" d="M455.111,238.255c-0.576-1.375-1.039-2.773-0.885-4.298
			C454.817,235.328,455.311,236.72,455.111,238.255z"/>
		<path style="fill:#969191;" d="M438.719,204.007c-0.765-0.506-1.529-1.013-1.739-2.001
			C437.835,202.432,438.396,203.116,438.719,204.007z"/>
		<path style="fill:#8B171D;" d="M361.163,328.384c0.257-0.212,0.431-0.106,0.564,0.147
			C361.505,328.605,361.294,328.645,361.163,328.384z"/>
		<path style="fill:#F1F2F2;" d="M392.928,290.901c-1.614,0.933-2.964,2.238-4.558,3.208c-2.081,1.267-4.249,2.365-6.457,3.37
			c-2.96,1.347-6.121,2.164-9.283,2.805c-3.551,0.72-7.174,1.094-10.828,0.885c-4.168-0.238-8.215-1.062-12.222-2.214
			c-3.053-0.877-5.862-2.255-8.634-3.739c-2.053-1.099-3.907-2.49-5.792-3.862c-2.342-1.705-4.316-3.741-6.246-5.828
			c-2.228-2.41-4.245-5.007-5.667-8.007c-0.12-0.253-0.333-0.461-0.502-0.69c-0.493-1.281-1.28-2.424-1.755-3.713l-0.003-0.005
			c-0.751-1.892-1.421-3.812-1.996-5.766l0-0.001c-0.503-1.102-0.494-2.329-0.841-3.469l0,0c-1.641-8.657-1.011-17.108,2.303-25.315
			l0-0.001c0.803-2.716,2.233-5.121,3.707-7.505l0.001-0.002c0.767-1.734,2.031-3.122,3.189-4.584
			c1.518-2.224,3.49-4.034,5.465-5.818c2.941-2.656,6.234-4.804,9.757-6.642c2.38-1.242,4.897-2.039,7.405-2.917
			c5.926-2.076,12.047-2.519,18.22-1.988c3.064,0.264,6.115,0.879,9.073,1.919c2.063,0.725,4.125,1.445,6.132,2.305
			c1.125,0.482,2.21,1.079,3.257,1.716c1.867,1.135,3.854,2.097,5.446,3.644c1.556,1.318,3.174,2.565,4.578,4.055
			c2.524,2.476,4.685,5.227,6.536,8.248c1.119,1.827,2.209,3.668,3.031,5.632c1.455,3.474,2.722,7.053,3.261,10.776
			c0.614,4.244,0.834,8.512,0.305,12.844c-0.616,5.042-2.087,9.787-4.089,14.385c-1.096,2.516-2.601,4.844-4.19,7.097
			c-0.191,0.271-0.361,0.558-0.54,0.838c-1.732,2.28-3.708,4.338-5.751,6.336l0.002-0.002
			C394.376,289.456,393.834,290.388,392.928,290.901z"/>
		<path style="fill:#918F8F;" d="M320.446,238.559c0.08,0.941-0.449,1.739-0.698,2.584c-0.676,2.286-1.275,4.577-1.712,6.924
			c-0.238,1.278-0.332,2.566-0.381,3.837c-0.135,3.476-0.212,6.964,0.469,10.411c0.1,0.507,0.194,1.037,0.02,1.559
			c-0.593-0.578-0.688-1.38-0.724-2.103c-0.121-2.426-0.508-4.837-0.434-7.274c0.104-3.429,0.436-6.835,1.263-10.167
			c0.422-1.701,1.05-3.351,1.578-5.026C319.934,238.967,320.128,238.715,320.446,238.559z"/>
		<path style="fill:#7E7B7B;" d="M395.238,288.897c-0.056-0.52,0.347-0.783,0.661-1.04c1.787-1.457,3.155-3.289,4.596-5.057
			c0.128-0.157,0.29-0.241,0.494-0.239c0.002,0.094,0.045,0.221,0,0.276C399.198,284.976,397.634,287.333,395.238,288.897z"/>
		<path style="fill:#918F8F;" d="M324.153,231.053c0.163,0.674-0.464,0.996-0.715,1.462c-1.068,1.981-1.981,4.036-2.992,6.043
			c-0.304-0.975,0.315-1.759,0.657-2.537c0.659-1.498,1.516-2.91,2.311-4.346C323.571,231.39,323.808,231.143,324.153,231.053z"/>
		<path style="fill:#8F8C8D;" d="M321.594,295.812c-0.205,0.028-0.377-0.031-0.492-0.207c-1.227-1.864-2.455-3.728-3.673-5.598
			c-0.156-0.24-0.258-0.514-0.148-0.815c0.914,0.789,1.374,1.907,2.042,2.871C320.153,293.262,320.967,294.484,321.594,295.812z"/>
		<path style="fill:#979595;" d="M396.676,222.74c-0.208-0.098-0.466-0.148-0.618-0.302c-1.154-1.176-2.382-2.267-3.673-3.289
			c-0.15-0.119-0.27-0.261-0.288-0.464c1.276,0.566,2.36,1.43,3.267,2.446C395.816,221.637,396.655,221.879,396.676,222.74z"/>
		<path style="fill:#918F8F;" d="M318.984,267.344c0.919,1.182,1.019,2.687,1.55,4.023c0.212,0.533,0.529,1.106,0.446,1.743
			c-0.851-0.435-0.622-1.42-1.034-2.105c-0.472-0.786-0.573-1.8-0.963-2.675C318.849,268.026,318.862,267.673,318.984,267.344z"/>
		<path style="fill:#918F8F;" d="M327.343,226.467c-0.045,0.178-0.035,0.406-0.144,0.528c-1.128,1.268-1.999,2.728-3.046,4.056
			c0.104-1.471,1.257-2.349,1.989-3.458C326.438,227.146,326.805,226.694,327.343,226.467z"/>
		<path style="fill:#8E8B8B;" d="M314.136,223.901c0.391-1.396,0.852-2.757,1.96-3.782
			C315.7,221.513,315.135,222.819,314.136,223.901z"/>
		<path style="fill:#918F8F;" d="M318.143,263.874c0.583,1.083,0.951,2.218,0.841,3.469
			C317.989,266.36,318.087,265.112,318.143,263.874z"/>
		<path style="fill:#918F8F;" d="M320.983,273.115c0.794,1.139,1.544,2.299,1.755,3.713
			C321.856,275.731,321.092,274.578,320.983,273.115z"/>
		<path style="fill:#939191;" d="M439.297,212.638c0.133,0.039,0.343,0.037,0.388,0.122c0.541,1.02,1.284,1.937,1.578,3.082
			c-0.41-0.11-0.682-0.43-0.791-0.778C440.198,214.192,439.451,213.559,439.297,212.638z"/>
		<path style="fill:#7E7B7B;" d="M392.928,290.901c0.642-0.816,1.277-1.641,2.312-2.005
			C394.65,289.773,394.038,290.623,392.928,290.901z"/>
		<path style="fill:#8F8C8D;" d="M317.28,289.193c-0.738-0.48-0.831-1.312-1.114-2.04
			C317.042,287.557,317.039,288.442,317.28,289.193z"/>
		<path style="fill:#9A9798;" d="M334.505,309.651c-0.657-0.171-1.147-0.538-1.397-1.188
			C333.814,308.577,334.292,308.958,334.505,309.651z"/>
		<path style="fill:#939191;" d="M441.263,215.845c0.529,0.327,1.023,0.676,0.884,1.419
			C441.608,216.944,441.295,216.482,441.263,215.845z"/>
		<path style="fill:#8B171D;" d="M367.45,324.465c-0.308,0.255-0.586,0.253-0.821-0.096
			C366.917,324.294,367.204,324.205,367.45,324.465z"/>
		<path style="fill:#8B171D;" d="M365.156,324.171c-0.212,0.15-0.405,0.218-0.496-0.121
			C364.851,323.991,365.036,323.947,365.156,324.171z"/>
		<path d="M335.399,252.073c0.364-0.597,0.875-1.044,1.45-1.427c1.799-1.198,3.604-2.382,5.797-2.755
			c0.516-0.088,0.974-0.364,1.449-0.563c0.754-0.316,0.383-0.693-0.048-1.016c-2.274-2.07-4.282-4.315-4.9-7.471
			c-0.976-2.872-0.829-5.74,0.025-8.606l0.001-0.005c0.224-0.658,0.166-1.398,0.582-2.001l0.002-0.006
			c0.488-1.01,1.07-1.964,1.709-2.885l0,0c1.013-1.287,2.16-2.441,3.437-3.466l0,0c0.545-0.429,1.172-0.735,1.726-1.152l0,0
			c1.277-0.727,2.644-1.243,4.023-1.732l0,0c4.06-1.317,8.173-1.615,12.404-0.908c2.798,0.468,5.556,1.066,8.29,1.799l0.004,0.001
			c3.806,0.88,7.174,2.686,10.36,4.882c1.694,1.402,3.211,2.961,4.334,4.87c3.459,5.504,3.308,11.067,0.274,16.678l-0.004-0.002
			c-0.568,0.943-1.296,1.763-1.998,2.603c-0.295,0.472-0.68,0.854-1.152,1.15c-1.702,1.046-3.235,2.372-5.124,3.112
			c-0.349,0.137-0.381,0.404-0.168,0.686c0.141,0.187,0.309,0.356,0.484,0.512c2.188,1.954,4.126,4.133,5.205,6.884
			c1.036,2.641,1.574,5.417,1.251,8.286c-0.112,0.996-0.32,1.98-0.475,2.972c-0.432,2.768-1.834,5.065-3.412,7.312
			c-1.769,2.519-4.032,4.402-6.711,5.867c-1.611,0.881-3.325,1.47-5.108,1.672c-4.53,0.511-9.06,0.385-13.587-0.236
			c-2.755-0.378-5.449-1.04-8.061-1.886c-3.692-1.197-7.395-2.506-10.325-5.258c-1.782-1.439-2.994-3.355-4.323-5.173l0,0
			c-1.7-3.838-2.589-7.83-1.975-12.024c0.258-1.763,0.561-3.539,1.11-5.252l0,0.001
			C332.867,255.573,333.933,253.697,335.399,252.073z"/>
		<path style="fill:#928F90;" d="M371.346,219.882c-0.634,0.194-1.218-0.031-1.819-0.194c-3.972-1.082-7.996-1.834-12.133-1.731
			c-2.008,0.05-3.961,0.522-5.908,0.982c-0.285,0.067-0.548,0.149-0.834,0.052c0.18-0.569,0.701-0.596,1.153-0.694
			c4.083-0.887,8.159-1.05,12.309-0.296c2.29,0.416,4.535,0.936,6.757,1.594C371.043,219.646,371.189,219.785,371.346,219.882z"/>
		<path style="fill:#7D7A7A;" d="M331.943,257.538c-0.016,1.578-0.442,3.09-0.747,4.62c-0.434,2.174-0.501,4.325,0.035,6.504
			c0.329,1.335,0.459,2.716,0.894,4.035c0.232,0.704,0.917,1.265,0.684,2.117c-0.506-0.144-0.567-0.644-0.712-1.012
			c-1.445-3.654-2.122-7.453-1.506-11.348C330.852,260.797,330.989,259.036,331.943,257.538z"/>
		<path style="fill:#8F8C8D;" d="M386.318,246.314c0.036-0.703,0.545-1.207,0.771-1.83c1.477-4.088,1.643-8.187,0.143-12.315
			c-0.322-0.884-1.144-1.525-1.187-2.533c0.927,0.495,1.251,1.469,1.534,2.322c0.687,2.069,1.486,4.149,1.26,6.402
			c-0.253,2.52-0.639,5.012-1.856,7.289C386.826,245.939,386.735,246.288,386.318,246.314z"/>
		<path style="fill:#928F90;" d="M381.71,224.765c-1.262-0.437-2.297-1.286-3.456-1.911c-2.055-1.109-4.217-1.947-6.419-2.699
			c-0.172-0.059-0.323-0.18-0.484-0.272c0.996-0.265,1.893,0.215,2.738,0.536c2.465,0.939,4.774,2.223,7.034,3.585
			C381.408,224.176,381.659,224.4,381.71,224.765z"/>
		<path style="fill:#928F90;" d="M339.173,230.236c0.165,0.817,0.009,1.625-0.189,2.4c-0.338,1.326-0.383,2.615-0.019,3.948
			c0.198,0.723,0.352,1.488,0.182,2.258c-0.655-0.602-0.751-1.431-0.784-2.225c-0.057-1.376-0.032-2.759,0.02-4.136
			C338.414,231.669,338.743,230.926,339.173,230.236z"/>
		<path style="fill:#848182;" d="M344.047,246.313c0.344-0.019,0.695-0.009,0.808,0.396c0.119,0.425-0.233,0.582-0.517,0.742
			c-0.288,0.162-0.583,0.368-0.897,0.42c-2.296,0.375-4.233,1.549-6.181,2.708c-0.111,0.066-0.273,0.047-0.411,0.067
			c-0.047-0.435,0.3-0.523,0.582-0.698c1.934-1.204,3.999-2.117,6.188-2.724C344.246,247.051,344.22,246.765,344.047,246.313z"/>
		<path style="fill:#7D7A7A;" d="M335.399,252.073c0.042,0.55-0.429,0.807-0.691,1.176c-0.779,1.101-1.646,2.142-2.017,3.483
			c-0.101,0.365-0.393,0.636-0.749,0.806c0.11-1.27,0.813-2.313,1.473-3.311C333.942,253.432,334.468,252.539,335.399,252.073z"/>
		<path style="fill:#7D7A7A;" d="M332.808,274.814c0.879,0.472,1.169,1.442,1.792,2.133c0.882,0.979,1.691,2.023,2.531,3.039
			c-0.511,0.065-0.794-0.333-1.047-0.629c-1.014-1.183-1.989-2.401-2.941-3.634C332.957,275.482,332.75,275.178,332.808,274.814z"/>
		<path style="fill:#928F90;" d="M344.904,221.875c-1.103,1.198-2.185,2.416-3.437,3.466c0.638-1.537,1.964-2.45,3.163-3.477
			C344.681,221.82,344.811,221.869,344.904,221.875z"/>
		<path style="fill:#928F90;" d="M350.653,218.991c-1.206,0.891-2.632,1.271-4.023,1.732c0.007-0.047-0.002-0.123,0.024-0.138
			C347.906,219.852,349.095,218.958,350.653,218.991z"/>
		<path style="fill:#928F90;" d="M341.467,225.34c-0.344,1.095-0.843,2.099-1.709,2.885
			C339.923,227.176,340.555,226.109,341.467,225.34z"/>
		<path style="fill:#8B8888;" d="M384.316,248.915c0.389-1.08,1.147-1.877,1.998-2.603
			C385.996,247.447,385.4,248.368,384.316,248.915z"/>
		<path style="fill:#928F90;" d="M346.629,220.723c-0.406,0.638-0.985,1.016-1.726,1.152
			C345.206,221.082,345.888,220.858,346.629,220.723z"/>
		<path style="fill:#928F90;" d="M339.755,228.231c0.131,0.761-0.233,1.379-0.582,2.001
			C339.047,229.472,339.104,228.765,339.755,228.231z"/>
		<path style="fill:#8B8888;" d="M383.164,250.064c0.244-0.523,0.664-0.87,1.152-1.15
			C384.228,249.595,383.868,250.002,383.164,250.064z"/>
		<path style="fill:#F1F2F2;" d="M352.378,273.658c-3.24-2.871-3.744-6.504-2.802-10.468c0.465-1.955,1.204-3.83,2.819-5.188
			c2.364-1.989,5.016-3.016,8.081-2.008c2.239,0.736,3.963,2.139,5.059,4.341c1.08,2.17,1.27,4.454,0.862,6.705
			c-0.356,1.967-0.868,4.017-2.525,5.454c-0.762,0.642-1.49,1.329-2.329,1.87C358.784,276.145,355.542,276.193,352.378,273.658z"/>
		<path style="fill:#F1F2F2;" d="M363.15,229.87c4.591-0.174,7.871,3.488,7.65,7.724c-0.222,4.25-3.147,7.707-7.466,7.537
			c-4.232-0.167-7.968-3.381-7.702-7.85C355.878,233.163,358.647,229.613,363.15,229.87z"/>
		<path style="fill:#A09D9E;" d="M352.378,273.658c0.484-0.045,0.791,0.302,1.132,0.541c1.91,1.337,4.046,1.343,6.152,0.831
			c1.226-0.298,2.303-1.108,3.271-1.97c0.28-0.25,0.493-0.599,0.94-0.566C361.023,276.467,355.262,277.106,352.378,273.658z"/>
	</g>
</g>
</svg>
