<svg width="46" height="46" viewBox="0 0 46 46" fill="none" xmlns="http://www.w3.org/2000/svg">
<path d="M44.0957 2.266C42.982 0.840754 41.3697 0.0815639 39.3044 0.00957172C33.473 -0.213705 29.3488 3.47023 27.0469 10.9577C26.9261 11.3509 26.9998 11.7868 27.2391 12.0956C27.4773 12.4026 27.835 12.5246 28.1731 12.4145C28.8351 12.1983 29.4916 12.0888 30.1245 12.0888C30.9743 12.0888 32.1053 12.2743 32.6683 13.1582C33.1004 13.8366 33.1592 14.8538 32.8431 16.1814C32.5762 17.3014 31.2028 20.2997 29.5029 23.4724C27.432 27.3378 26.288 29.0706 25.9582 29.0706C24.8655 29.0706 20.9169 8.27924 20.8084 7.82324C19.6758 3.05816 19.1073 0.666312 15.4245 0.666312C12.6176 0.666312 6.3572 6.75318 1.21684 12.0561C0.900683 12.3822 0.634444 12.6569 0.428299 12.8661C-0.0685668 13.3705 -0.143499 14.2468 0.257979 14.8609L1.21589 16.3264C1.61938 16.9438 2.35535 17.0727 2.89175 16.6198L2.94443 16.5752C4.60747 15.1702 6.17851 13.8433 7.3645 13.7705C8.6533 13.6954 9.77157 16.0864 11.1048 21.7759C13.6439 32.8268 17.5016 46 21.4606 46C25.5979 46 30.5336 41.8352 36.9137 31.9755C42.6881 23.0517 45.7801 15.9742 45.9787 10.8249C46.1278 6.93568 45.4943 4.05611 44.0957 2.266Z" fill="#FF69B4"/>
</svg>
