<?xml version="1.0" standalone="no"?>
<!DOCTYPE svg PUBLIC "-//W3C//DTD SVG 20010904//EN"
 "http://www.w3.org/TR/2001/REC-SVG-20010904/DTD/svg10.dtd">
<svg version="1.0" xmlns="http://www.w3.org/2000/svg"
 width="654.000000pt" height="704.000000pt" viewBox="0 0 654.000000 704.000000"
 preserveAspectRatio="xMidYMid meet">

<g transform="translate(0.000000,704.000000) scale(0.100000,-0.100000)"
fill="#000000" stroke="none">
<path d="M264 5256 c-24 -18 -29 -110 -40 -706 -5 -313 -4 -435 5 -495 10 -63
10 -168 2 -485 -16 -580 -25 -804 -71 -1745 -17 -340 -30 -765 -30 -991 0
-248 0 -249 90 -264 30 -5 154 -14 275 -20 121 -6 301 -17 400 -25 343 -28
581 -45 770 -55 105 -5 271 -17 370 -25 214 -18 703 -50 975 -65 107 -6 211
-13 230 -15 43 -6 430 -30 805 -50 154 -8 368 -22 475 -30 107 -8 350 -24 540
-35 190 -11 449 -29 575 -40 469 -40 494 -39 520 23 20 48 24 115 45 772 11
330 29 735 40 900 26 404 45 724 70 1190 11 215 27 491 35 615 8 124 20 317
25 430 6 113 15 254 20 313 13 152 24 548 17 579 -5 20 -19 31 -52 44 -41 15
-71 16 -263 11 -894 -27 -1082 -29 -1216 -11 -108 13 -184 15 -426 11 -602
-12 -974 -8 -1053 10 -87 20 -246 20 -762 3 -400 -14 -635 -10 -740 13 -72 16
-616 37 -934 37 l-154 0 -137 45 c-205 67 -365 91 -406 61z m970 -188 c12 -13
57 -71 101 -127 142 -184 238 -305 278 -354 21 -27 36 -51 32 -55 -7 -8 -443
-4 -495 5 -56 9 -118 86 -222 278 -51 94 -105 192 -120 218 -15 26 -28 53 -28
59 0 8 64 9 217 6 215 -5 217 -6 237 -30z m1462 -21 c16 -18 74 -91 129 -162
55 -70 141 -180 192 -244 51 -64 92 -123 93 -133 0 -15 -22 -16 -242 -12 -134
3 -298 7 -365 10 l-122 6 -38 51 c-49 65 -242 316 -322 420 -34 42 -61 82 -61
87 0 6 130 10 354 10 l354 0 28 -33z m1567 -117 c250 -318 337 -433 337 -447
0 -14 -43 -15 -366 -11 -201 3 -369 9 -373 14 -10 11 -139 179 -166 215 -50
67 -183 239 -222 287 -24 29 -43 57 -43 63 0 6 134 8 367 7 l367 -3 99 -125z
m1255 103 l172 -6 35 -46 c18 -25 75 -98 125 -161 214 -270 260 -332 260 -358
l0 -25 -227 6 c-124 4 -290 7 -367 7 l-141 0 -63 83 c-34 45 -86 112 -115 149
-29 36 -79 102 -112 145 -33 43 -79 101 -102 130 -66 82 -64 83 166 83 108 0
274 -3 369 -7z m-4901 -107 c39 -34 39 -98 0 -132 -39 -33 -81 -31 -118 5 -82
83 29 203 118 127z m965 -475 l86 -6 -76 -83 c-43 -45 -83 -82 -90 -82 -14 0
-159 88 -237 144 l-50 36 140 -1 c77 -1 179 -4 227 -8z m1192 -46 c187 -8 342
-17 344 -20 3 -2 -111 -124 -253 -270 l-257 -265 -82 0 c-110 1 -636 27 -641
32 -2 2 94 105 213 228 120 124 235 244 256 268 23 24 47 42 60 42 11 0 174
-7 360 -15z m1611 -66 c121 -6 221 -11 222 -13 1 -1 -118 -125 -265 -274
l-267 -273 -365 17 c-201 9 -367 18 -369 21 -3 2 94 104 216 226 121 122 240
244 264 271 l44 48 150 -6 c82 -4 249 -11 370 -17z m1465 -60 c146 -6 267 -13
270 -16 3 -2 -119 -126 -270 -274 l-275 -270 -165 6 c-430 16 -571 23 -577 29
-4 4 114 128 262 277 l270 270 110 -5 c61 -4 229 -11 375 -17z m-5286 1 c35
-13 64 -62 58 -100 -10 -66 -100 -93 -148 -45 -20 20 -25 33 -22 67 2 35 9 46
37 65 39 26 40 26 75 13z m451 -22 c29 -13 55 -55 55 -87 0 -11 -12 -33 -26
-50 -66 -79 -192 8 -144 99 11 20 56 49 77 50 7 0 24 -5 38 -12z m-679 -650
c-18 -519 -29 -756 -36 -788 -6 -27 -8 -12 -9 60 -2 120 19 891 25 908 2 6 9
12 15 12 9 0 10 -48 5 -192z m2017 -3075 c-7 -2 -21 -2 -30 0 -10 3 -4 5 12 5
17 0 24 -2 18 -5z m130 -10 c-13 -2 -35 -2 -50 0 -16 2 -5 4 22 4 28 0 40 -2
28 -4z m184 -10 c-20 -2 -52 -2 -70 0 -17 2 0 4 38 4 39 0 53 -2 32 -4z"/>
</g>
</svg>
